

<svg width="233" height="51" viewBox="0 0 233 51" fill="none" xmlns="http://www.w3.org/2000/svg">
<path d="M49.6426 44H45.5996C45.4824 44 45.4238 43.9414 45.4238 43.8242L45.4941 19.0918C45.4941 18.998 45.541 18.9512 45.6348 18.9512H57.166C57.2832 18.9512 57.3418 18.998 57.3418 19.0918V23.1523C57.3418 23.2461 57.2949 23.293 57.2012 23.293H49.8184V28.8828H57.2012C57.2949 28.8828 57.3418 28.9414 57.3418 29.0586L57.377 33.1367C57.377 33.2305 57.3184 33.2773 57.2012 33.2773H49.8184V43.8242C49.8184 43.9414 49.7598 44 49.6426 44ZM72.3535 44H60.7168C60.623 44 60.5762 43.9414 60.5762 43.8242L60.6113 19.127C60.6113 19.0098 60.6699 18.9512 60.7871 18.9512H64.7949C64.9121 18.9512 64.9707 19.0098 64.9707 19.127L64.9355 39.5703H72.3535C72.4707 39.5703 72.5293 39.6289 72.5293 39.7461V43.8242C72.5293 43.9414 72.4707 44 72.3535 44ZM79.1387 44H75.0605C74.9434 44 74.8848 43.9414 74.8848 43.8242L74.9199 19.0918C74.9199 18.998 74.9668 18.9512 75.0605 18.9512H79.1035C79.1973 18.9512 79.2441 18.998 79.2441 19.0918L79.2793 43.8242C79.2793 43.9414 79.2324 44 79.1387 44ZM89.0352 44.3516C87.7344 44.3516 86.5625 44.0293 85.5195 43.3848C84.4648 42.7402 83.6152 41.873 82.9707 40.7832C82.3379 39.6934 82.0215 38.4746 82.0215 37.127V25.7188C82.0215 24.4062 82.3438 23.2109 82.9883 22.1328C83.6211 21.043 84.4707 20.1758 85.5371 19.5312C86.6035 18.875 87.7695 18.5469 89.0352 18.5469C90.3594 18.5469 91.5547 18.8633 92.6211 19.4961C93.6875 20.1406 94.5312 21.002 95.1523 22.0801C95.7852 23.1582 96.1016 24.3711 96.1016 25.7188V27.3711C96.1016 27.4648 96.043 27.5117 95.9258 27.5117H91.8828C91.7891 27.5117 91.7422 27.4648 91.7422 27.3711V26C91.7422 25.0859 91.4844 24.3301 90.9688 23.7324C90.4531 23.1348 89.8086 22.8359 89.0352 22.8359C88.3438 22.8359 87.7285 23.123 87.1895 23.6973C86.6504 24.2715 86.3809 24.9453 86.3809 25.7188V37.127C86.3809 37.9121 86.6445 38.5918 87.1719 39.166C87.6992 39.7285 88.3203 40.0098 89.0352 40.0098C89.8086 40.0098 90.4531 39.7344 90.9688 39.1836C91.4844 38.6211 91.7422 37.9355 91.7422 37.127V35.3516H89.2285C89.0996 35.3516 89.0352 35.293 89.0352 35.1758V31.1504C89.0352 31.0332 89.0996 30.9746 89.2285 30.9746H95.9609C96.0547 30.9746 96.1016 31.0332 96.1016 31.1504V37.127C96.1016 38.4746 95.7852 39.6934 95.1523 40.7832C94.5078 41.873 93.6582 42.7402 92.6035 43.3848C91.5488 44.0293 90.3594 44.3516 89.0352 44.3516ZM102.869 44H98.791C98.6973 44 98.6504 43.9414 98.6504 43.8242L98.6855 19.0918C98.6855 18.998 98.7441 18.9512 98.8613 18.9512H102.869C102.986 18.9512 103.045 18.998 103.045 19.0918L103.01 28.8828H108.406V19.0918C108.406 18.998 108.453 18.9512 108.547 18.9512H112.555C112.672 18.9512 112.73 18.998 112.73 19.0918L112.801 43.8242C112.801 43.9414 112.742 44 112.625 44H108.582C108.465 44 108.406 43.9414 108.406 43.8242V33.2422H103.01V43.8242C103.01 43.9414 102.963 44 102.869 44ZM123.418 44H119.357C119.252 44 119.199 43.9414 119.199 43.8242V23.293H114.523C114.406 23.293 114.348 23.2344 114.348 23.1172L114.383 19.0918C114.383 18.998 114.43 18.9512 114.523 18.9512H128.199C128.328 18.9512 128.393 18.998 128.393 19.0918V23.1172C128.393 23.2344 128.346 23.293 128.252 23.293H123.523L123.559 43.8242C123.559 43.9414 123.512 44 123.418 44ZM136.039 44.3516C134.738 44.3516 133.549 44.0234 132.471 43.3672C131.404 42.7109 130.555 41.832 129.922 40.7305C129.301 39.6172 128.99 38.3809 128.99 37.0215L129.025 25.7891C129.025 24.4531 129.33 23.2461 129.939 22.168C130.549 21.0781 131.387 20.2051 132.453 19.5488C133.531 18.8809 134.727 18.5469 136.039 18.5469C137.375 18.5469 138.564 18.8691 139.607 19.5137C140.662 20.1582 141.5 21.0312 142.121 22.1328C142.754 23.2227 143.07 24.4414 143.07 25.7891V27.4414C143.07 27.5352 143.023 27.582 142.93 27.582H138.887C138.793 27.582 138.746 27.5352 138.746 27.4414V25.7891C138.746 24.9922 138.488 24.3066 137.973 23.7324C137.457 23.1582 136.812 22.8711 136.039 22.8711C135.184 22.8711 134.527 23.1641 134.07 23.75C133.613 24.3359 133.385 25.0156 133.385 25.7891V37.0215C133.385 37.9004 133.643 38.6211 134.158 39.1836C134.674 39.7344 135.301 40.0098 136.039 40.0098C136.812 40.0098 137.457 39.7051 137.973 39.0957C138.488 38.4746 138.746 37.7832 138.746 37.0215V35.3516C138.746 35.2578 138.793 35.2109 138.887 35.2109H142.965C143.059 35.2109 143.105 35.2578 143.105 35.3516V37.0215C143.105 38.3691 142.789 39.5996 142.156 40.7129C141.512 41.8145 140.662 42.6992 139.607 43.3672C138.553 44.0234 137.363 44.3516 136.039 44.3516ZM149.943 44H145.865C145.771 44 145.725 43.9414 145.725 43.8242L145.76 19.0918C145.76 18.998 145.818 18.9512 145.936 18.9512H149.943C150.061 18.9512 150.119 18.998 150.119 19.0918L150.084 28.8828H155.48V19.0918C155.48 18.998 155.527 18.9512 155.621 18.9512H159.629C159.746 18.9512 159.805 18.998 159.805 19.0918L159.875 43.8242C159.875 43.9414 159.816 44 159.699 44H155.656C155.539 44 155.48 43.9414 155.48 43.8242V33.2422H150.084V43.8242C150.084 43.9414 150.037 44 149.943 44ZM167.064 44H162.986C162.869 44 162.811 43.9414 162.811 43.8242L162.846 19.0918C162.846 18.998 162.893 18.9512 162.986 18.9512H167.029C167.123 18.9512 167.17 18.998 167.17 19.0918L167.205 43.8242C167.205 43.9414 167.158 44 167.064 44ZM182.146 44H170.51C170.416 44 170.369 43.9414 170.369 43.8242L170.404 19.0918C170.404 18.998 170.451 18.9512 170.545 18.9512H182.111C182.205 18.9512 182.252 19.0098 182.252 19.127V23.1523C182.252 23.2461 182.205 23.293 182.111 23.293H174.729V28.918H182.111C182.205 28.918 182.252 28.9648 182.252 29.0586L182.287 33.1367C182.287 33.2305 182.24 33.2773 182.146 33.2773H174.729V39.5703H182.146C182.24 39.5703 182.287 39.6289 182.287 39.7461V43.8594C182.287 43.9531 182.24 44 182.146 44ZM189.705 44H185.662C185.545 44 185.486 43.9414 185.486 43.8242L185.557 19.0918C185.557 18.998 185.604 18.9512 185.697 18.9512H197.229C197.346 18.9512 197.404 18.998 197.404 19.0918V23.1523C197.404 23.2461 197.357 23.293 197.264 23.293H189.881V28.8828H197.264C197.357 28.8828 197.404 28.9414 197.404 29.0586L197.439 33.1367C197.439 33.2305 197.381 33.2773 197.264 33.2773H189.881V43.8242C189.881 43.9414 189.822 44 189.705 44Z" fill="white"/>
<path d="M207.266 44.3516C206 44.3516 204.828 44.0234 203.75 43.3672C202.672 42.7109 201.811 41.832 201.166 40.7305C200.533 39.6172 200.217 38.4043 200.217 37.0918L200.287 19.0918C200.287 18.998 200.334 18.9512 200.428 18.9512H204.471C204.564 18.9512 204.611 18.998 204.611 19.0918V37.0918C204.611 37.9004 204.869 38.5918 205.385 39.166C205.9 39.7285 206.527 40.0098 207.266 40.0098C208.039 40.0098 208.684 39.7285 209.199 39.166C209.715 38.5918 209.973 37.9004 209.973 37.0918V19.0918C209.973 18.998 210.02 18.9512 210.113 18.9512H214.156C214.25 18.9512 214.297 18.998 214.297 19.0918L214.367 37.0918C214.367 38.416 214.051 39.6348 213.418 40.748C212.773 41.8496 211.918 42.7285 210.852 43.3848C209.785 44.0293 208.59 44.3516 207.266 44.3516ZM221.451 44H217.373C217.256 44 217.197 43.9414 217.197 43.8242L217.232 19.0918C217.232 18.998 217.279 18.9512 217.373 18.9512H221.416C221.51 18.9512 221.557 18.998 221.557 19.0918L221.592 43.8242C221.592 43.9414 221.545 44 221.451 44Z" fill="#BD5334"/>
<rect y="16" width="40" height="30" rx="6" fill="white"/>
<rect x="9.5" y="12.5" width="6" height="8" rx="3" fill="#BD5334" stroke="white"/>
<rect x="24.5" y="12.5" width="6" height="8" rx="3" fill="#BD5334" stroke="white"/>
<path d="M21.696 36.728C21.696 36.9093 21.152 37 20.064 37C18.9867 37 18.448 36.9093 18.448 36.728V28.84L16.72 28.856C16.4 28.856 16.24 28.344 16.24 27.32C16.24 26.968 16.272 26.6267 16.336 26.296C16.4107 25.9653 16.5333 25.8 16.704 25.8H21.088C21.2693 25.8 21.4133 25.8427 21.52 25.928C21.6373 26.0027 21.696 26.0987 21.696 26.216V36.728Z" fill="#BD5334"/>
</svg>
