<?xml version="1.0" standalone="no"?>
<!DOCTYPE svg PUBLIC "-//W3C//DTD SVG 20010904//EN"
 "http://www.w3.org/TR/2001/REC-SVG-20010904/DTD/svg10.dtd">
<svg version="1.0" xmlns="http://www.w3.org/2000/svg"
 width="100" height="100" viewBox="0 0 700.000000 1042.000000"
 preserveAspectRatio="xMidYMid meet">

<g transform="translate(0.000000,1042.000000) scale(0.100000,-0.100000)"
fill="#000000" stroke="none">
<path d="M3525 10411 c-148 -24 -263 -78 -355 -167 -49 -47 -69 -61 -80 -54
-8 5 -34 10 -58 10 -24 0 -56 7 -73 15 -50 26 -131 37 -185 25 -27 -6 -96 -33
-152 -61 -86 -42 -117 -64 -181 -127 -105 -104 -133 -162 -167 -339 -3 -17
-13 -23 -52 -29 -26 -3 -65 -14 -87 -24 -47 -20 -117 -93 -146 -152 -15 -30
-36 -53 -74 -75 -116 -72 -214 -185 -253 -295 -9 -26 -20 -48 -25 -48 -4 0
-17 16 -28 35 -25 42 -55 46 -87 12 l-22 -23 -86 42 c-100 50 -208 80 -331 95
-114 14 -141 26 -194 88 -32 37 -51 51 -70 51 -32 0 -59 -29 -69 -72 -3 -18
-11 -32 -16 -31 -5 0 -58 11 -119 23 -105 21 -112 24 -143 61 -60 70 -126 40
-92 -41 17 -41 97 -120 172 -169 68 -44 66 -53 -3 -21 -56 25 -76 25 -89 0
-32 -60 95 -160 308 -241 34 -13 62 -27 62 -31 0 -15 -60 -8 -112 12 -92 35
-148 21 -134 -34 7 -30 91 -106 162 -146 l54 -31 -21 -28 c-15 -21 -18 -33
-11 -52 21 -54 96 -107 183 -129 32 -8 50 -21 64 -43 39 -61 170 -93 278 -68
52 12 57 -6 17 -64 -70 -102 -100 -204 -100 -344 0 -110 21 -230 59 -342 l29
-87 -20 -68 c-44 -156 -33 -325 29 -454 25 -51 120 -158 170 -192 20 -13 21
-19 13 -49 -15 -51 -12 -177 5 -244 29 -112 95 -223 193 -327 l34 -36 -20 -30
c-12 -16 -34 -69 -50 -118 -55 -169 -146 -321 -305 -509 -163 -193 -468 -390
-695 -448 -106 -28 -149 -51 -179 -97 -28 -40 -29 -74 -4 -171 34 -130 45
-230 44 -394 -1 -374 -111 -650 -370 -927 -96 -103 -143 -177 -143 -225 0 -42
50 -119 130 -203 195 -204 295 -386 352 -641 20 -91 23 -129 22 -314 0 -168
-4 -225 -18 -285 -29 -118 -31 -208 -7 -247 27 -43 57 -57 189 -87 433 -97
912 -552 981 -931 16 -86 58 -165 101 -188 44 -23 157 -19 208 7 86 44 230 56
375 30 115 -20 182 -45 260 -99 321 -220 827 -317 1226 -235 215 44 484 158
626 266 80 60 125 83 191 95 74 14 246 -4 355 -36 106 -32 219 -34 266 -5 49
29 80 85 103 184 34 145 109 280 254 454 190 228 403 376 679 471 146 50 186
71 227 117 32 37 33 39 27 113 -3 42 -15 104 -26 139 -33 100 -46 268 -33 398
33 323 156 586 403 859 143 159 144 216 5 364 -135 145 -227 277 -300 431
-128 273 -163 620 -85 870 11 36 23 92 26 126 11 119 -36 163 -247 234 -294
98 -511 241 -683 448 -137 165 -224 320 -252 449 -8 37 -17 77 -20 88 -5 16 7
29 56 65 74 54 160 146 200 215 65 111 87 261 59 392 l-12 53 36 34 c45 42 68
95 65 151 -2 39 2 48 44 95 65 72 134 186 165 272 23 63 26 88 26 188 0 232
-68 394 -206 495 l-28 20 35 105 c19 58 38 116 42 129 6 18 22 28 67 41 59 19
106 53 106 77 0 8 12 13 33 13 44 0 125 40 164 81 42 45 51 81 26 106 -19 19
-19 20 44 52 35 18 86 55 114 81 42 39 50 53 47 76 -3 25 -8 29 -38 32 -19 2
-57 -2 -85 -8 -27 -6 -66 -10 -85 -8 l-35 3 50 19 c124 46 252 115 288 155 67
75 39 121 -49 82 -71 -32 -74 -25 -8 18 131 85 210 183 184 230 -15 29 -56 27
-85 -5 -14 -15 -25 -30 -25 -34 0 -4 -8 -11 -17 -15 -16 -5 -217 -44 -234 -45
-4 0 -9 18 -13 39 -7 43 -35 71 -73 71 -14 0 -34 -15 -55 -41 -47 -59 -91 -77
-221 -94 -61 -8 -145 -23 -185 -35 l-73 -20 -42 33 c-54 43 -100 70 -159 92
l-48 18 0 114 c0 93 -4 121 -20 152 -42 84 -107 110 -241 97 -69 -7 -69 -7
-69 18 0 42 -43 148 -88 213 -58 86 -112 117 -192 111 -49 -4 -61 -1 -65 12
-11 36 -55 64 -101 66 -26 1 -53 9 -63 18 -55 50 -217 72 -316 45 -38 -11 -41
-10 -60 17 -40 57 -121 137 -163 161 -82 49 -155 64 -312 68 -80 2 -168 0
-195 -4z m292 -62 c91 -12 174 -43 227 -85 20 -16 66 -72 101 -124 91 -135
109 -155 128 -147 23 9 21 43 -4 78 -19 28 -20 29 -2 37 10 4 59 7 108 7 104
0 149 -19 175 -72 l15 -32 29 22 c26 19 31 19 55 6 16 -9 34 -34 46 -65 l20
-50 34 23 c66 45 133 21 195 -70 46 -67 66 -125 74 -212 6 -58 10 -70 24 -67
11 2 18 -5 20 -20 4 -33 32 -29 38 7 4 25 11 30 45 38 54 12 133 2 157 -20 37
-33 43 -58 48 -198 l5 -139 38 -8 c48 -10 133 -50 172 -82 l29 -23 -43 -22
-42 -22 -20 25 c-29 37 -62 34 -86 -7 -38 -63 -129 -99 -383 -150 -394 -80
-530 -132 -617 -234 -154 -181 -226 -238 -346 -275 -57 -17 -86 -20 -156 -15
-47 3 -93 8 -102 12 -11 4 -22 34 -34 93 -22 113 -76 290 -113 372 -26 59 -34
67 -70 79 -29 10 -69 12 -134 8 -77 -5 -96 -9 -110 -27 -12 -15 -28 -20 -65
-21 -75 0 -115 -18 -136 -61 -19 -40 -16 -92 8 -125 12 -17 14 -16 32 6 18 22
23 23 53 13 18 -7 46 -12 61 -12 36 0 43 -13 42 -77 -2 -78 -30 -162 -68 -204
-18 -20 -36 -46 -39 -57 -9 -28 -27 -33 -127 -39 -184 -12 -329 70 -488 276
-23 30 -58 67 -78 83 -88 69 -263 131 -573 203 -113 26 -218 54 -233 62 -32
16 -32 22 14 121 36 80 139 185 226 233 35 19 63 40 63 47 0 18 28 71 59 110
32 41 69 61 131 71 l48 8 11 -60 c6 -33 17 -70 26 -83 20 -30 62 -42 81 -22
17 16 9 48 -12 48 -26 0 -38 44 -37 140 2 218 104 370 320 477 90 45 101 48
174 48 91 0 109 -10 84 -49 -19 -29 -14 -56 11 -56 9 0 32 16 51 35 36 37 57
42 98 23 18 -8 24 -16 19 -27 -28 -65 5 -63 43 2 115 196 371 289 680 246z
m-3185 -1089 c123 -25 154 -36 198 -65 29 -19 91 -46 138 -60 189 -56 261 -94
310 -166 l27 -38 106 -1 c134 0 199 -9 199 -26 0 -22 -85 -27 -287 -17 l-192
10 -43 39 c-65 60 -110 83 -187 99 -86 18 -118 30 -156 59 -16 12 -68 45 -114
72 -81 47 -211 160 -211 183 0 6 15 -5 33 -24 30 -33 41 -37 179 -65z m223 47
c42 -58 99 -84 228 -102 120 -16 260 -59 349 -107 58 -31 75 -45 136 -112 l33
-36 -139 0 -138 0 -38 45 c-51 61 -118 98 -266 145 -155 49 -216 85 -225 133
-7 33 7 78 23 76 4 0 21 -19 37 -42z m5365 -26 c0 -51 -12 -69 -60 -95 -26
-14 -98 -39 -159 -55 -146 -39 -210 -69 -271 -130 l-51 -51 -135 0 -135 0 43
51 c70 83 244 158 416 180 189 24 251 48 304 119 25 34 48 25 48 -19z m371 31
c-14 -26 -111 -115 -156 -144 -44 -28 -161 -92 -215 -118 -19 -10 -66 -23
-104 -29 -84 -15 -107 -26 -185 -91 l-60 -50 -209 0 c-229 0 -274 4 -265 26 4
11 35 14 145 14 l141 0 51 54 c66 68 122 96 270 135 66 17 138 41 160 54 23
13 50 28 61 35 11 6 85 22 165 36 141 25 146 26 174 61 32 38 42 45 27 17z
m-4913 -300 c45 -24 115 -45 254 -77 426 -97 544 -148 651 -283 117 -146 220
-227 336 -263 103 -32 267 -25 371 15 11 5 20 -7 33 -44 21 -58 36 -63 57 -18
20 44 32 44 54 3 20 -37 40 -45 50 -19 5 13 10 13 33 -6 31 -24 88 -50 109
-50 9 0 14 12 14 33 0 37 8 51 33 60 9 3 17 13 17 22 0 12 6 14 26 9 20 -5 26
-2 31 16 4 17 11 20 27 15 11 -4 69 -9 128 -12 128 -7 209 14 303 75 54 35 87
68 241 235 80 87 218 137 594 213 241 48 332 83 385 145 13 16 26 29 29 29 15
0 4 -70 -14 -93 -62 -79 -271 -169 -505 -218 -68 -14 -225 -77 -225 -90 0 -14
13 -11 75 16 62 28 70 27 61 -3 -8 -24 -47 -42 -91 -42 -19 0 -35 -5 -35 -11
0 -7 18 -10 50 -7 46 3 50 1 48 -17 -3 -17 -11 -20 -61 -20 -71 1 -71 -19 0
-23 45 -3 51 -6 56 -28 7 -40 -18 -57 -75 -51 -26 3 -48 2 -48 -2 0 -13 27
-21 66 -21 28 0 34 -4 34 -21 0 -58 -45 -76 -94 -38 -15 12 -30 19 -33 15 -10
-9 20 -38 55 -53 34 -14 44 -47 20 -71 -15 -15 -79 -16 -113 0 -28 13 -48 3
-25 -13 8 -5 28 -12 43 -16 25 -5 28 -9 22 -32 -14 -58 -41 -62 -110 -15 -21
14 -40 22 -44 19 -6 -7 30 -41 64 -60 17 -10 17 -12 0 -44 -15 -30 -20 -33
-51 -28 -19 3 -47 15 -63 26 -16 12 -35 21 -41 21 -18 0 7 -28 42 -46 19 -10
28 -22 28 -39 0 -14 -4 -25 -9 -25 -5 0 -11 -9 -14 -20 -8 -31 -35 -24 -78 19
-53 52 -60 33 -9 -23 l41 -44 -24 -28 c-33 -38 -68 -28 -103 31 -22 39 -44 58
-44 40 0 -11 32 -70 48 -87 16 -20 6 -40 -30 -59 -25 -14 -43 1 -76 65 -17 33
-27 45 -30 34 -2 -9 6 -35 18 -58 13 -25 19 -52 16 -64 -6 -26 -48 -51 -70
-43 -19 7 -45 47 -61 93 -6 19 -16 34 -21 32 -13 -5 -5 -38 22 -87 23 -41 23
-45 8 -63 -38 -41 -92 -5 -109 74 -7 31 -25 38 -25 11 0 -10 10 -38 21 -63 19
-42 19 -45 3 -57 -10 -7 -30 -13 -46 -13 -15 0 -28 -5 -28 -11 0 -7 15 -10 40
-7 39 3 40 3 40 -29 0 -38 -6 -40 -40 -13 -14 11 -33 20 -42 20 -12 0 -19 12
-24 48 -3 26 -13 67 -21 92 -15 46 -81 160 -92 160 -3 0 -19 -16 -35 -36 -16
-21 -53 -48 -85 -63 -48 -22 -69 -26 -151 -25 -118 0 -191 26 -244 84 -20 22
-39 40 -43 40 -11 -1 -75 -107 -90 -149 -7 -18 -18 -62 -24 -97 -11 -62 -12
-64 -38 -58 -47 11 -53 25 -32 69 23 46 30 83 17 87 -5 2 -15 -16 -22 -40 -13
-47 -39 -82 -59 -82 -7 0 -23 8 -36 18 l-22 19 26 53 c26 53 34 90 20 90 -5 0
-17 -23 -28 -52 -11 -28 -32 -60 -47 -71 -26 -19 -28 -19 -53 -3 -38 25 -40
42 -11 95 27 50 32 71 18 71 -5 0 -17 -18 -27 -40 -26 -58 -49 -76 -80 -62
-38 18 -40 36 -6 83 30 41 39 69 23 69 -4 0 -16 -16 -26 -35 -37 -68 -100 -83
-124 -30 -11 23 -8 28 28 61 22 20 40 43 40 50 0 20 -3 18 -48 -26 -22 -22
-47 -40 -55 -40 -15 0 -47 51 -47 74 0 6 16 21 35 34 19 12 35 27 35 32 0 15
-7 13 -48 -15 -43 -29 -68 -31 -94 -8 -30 27 -23 57 22 82 22 12 40 26 40 32
0 14 -11 11 -55 -16 -58 -36 -83 -33 -101 11 -8 20 -14 37 -12 38 2 2 18 7 37
12 19 5 37 16 39 23 3 10 0 12 -14 6 -39 -16 -116 -18 -125 -4 -17 28 -10 58
15 65 31 8 77 54 53 54 -9 0 -19 -5 -22 -11 -4 -5 -18 -15 -32 -20 -33 -12
-63 12 -63 53 0 24 4 28 28 28 38 0 72 11 72 22 0 6 -14 8 -34 4 -19 -4 -46
-4 -60 0 -22 5 -26 12 -26 40 l0 34 54 0 c75 0 82 18 9 22 -46 2 -59 7 -61 21
-3 14 4 17 47 17 28 0 51 5 51 10 0 6 -21 10 -46 10 -58 0 -84 14 -84 45 0 31
0 31 60 0 27 -14 54 -25 60 -25 53 0 -109 82 -216 109 -213 54 -385 130 -461
204 -36 35 -43 47 -43 81 l0 39 33 -34 c18 -19 61 -49 95 -67z m-1108 69 c14
-4 53 -5 87 -2 45 5 67 3 80 -7 30 -23 77 -40 153 -56 76 -16 122 -41 191
-103 39 -36 40 -36 167 -45 70 -4 181 -7 248 -6 l121 2 31 -36 32 -35 -321 -8
c-303 -7 -321 -6 -341 11 -11 11 -26 31 -34 45 -10 21 -41 38 -146 79 -169 68
-254 110 -298 150 -23 21 -28 29 -15 25 11 -4 31 -10 45 -14z m5906 -30 c-33
-36 -184 -106 -378 -175 -43 -16 -78 -34 -78 -40 0 -7 -11 -23 -25 -36 l-25
-23 -242 7 c-134 3 -279 9 -323 12 l-80 7 31 31 31 31 252 -3 253 -3 52 49
c66 63 96 78 182 93 38 6 89 22 114 34 40 20 52 22 112 13 52 -7 74 -5 100 6
44 19 44 19 24 -3z m-2909 -72 c33 -11 61 -61 103 -187 22 -66 70 -258 70
-279 0 -7 -10 -13 -21 -13 -19 0 -21 -4 -16 -35 5 -33 4 -35 -24 -35 -19 0
-29 -5 -29 -15 0 -8 -9 -24 -20 -35 -11 -11 -20 -31 -20 -45 0 -14 -2 -25 -5
-25 -18 0 -67 34 -89 62 -25 31 -27 32 -40 15 -13 -16 -15 -16 -30 8 -21 32
-33 31 -67 -1 l-27 -26 -9 43 c-9 43 -10 44 -47 42 -42 -3 -41 0 11 53 31 31
57 127 58 212 0 59 3 72 16 72 9 0 18 3 22 6 9 9 -17 55 -47 83 -26 25 -34 51
-16 51 6 0 15 11 20 24 8 21 17 25 57 29 97 7 121 7 150 -4z m-257 -63 c0 -15
13 -37 32 -55 18 -17 29 -33 26 -37 -4 -3 -30 -1 -58 5 -64 14 -127 14 -135 1
-10 -17 -25 -1 -25 26 0 58 33 82 113 83 43 1 47 -1 47 -23z m-1465 -86 c50
-17 128 -42 175 -55 83 -23 84 -24 38 -24 -54 -1 -251 31 -324 53 -58 18 -91
49 -100 95 l-7 32 64 -35 c35 -19 105 -49 154 -66z m3530 78 c-13 -41 -36 -69
-70 -84 -45 -18 -232 -51 -335 -58 l-85 -6 111 29 c141 38 240 72 312 110 70
36 75 37 67 9z m-4679 -69 c49 -18 72 -21 160 -17 l103 5 33 -35 33 -34 330 7
c182 3 341 7 355 8 16 1 25 -3 25 -13 0 -11 -31 -23 -110 -42 -205 -51 -348
-71 -515 -72 l-155 -1 -88 42 c-98 47 -211 123 -227 153 -13 25 -13 25 56 -1z
m5668 -24 c-10 -24 -142 -107 -239 -150 -88 -38 -93 -39 -200 -38 -144 1 -313
26 -504 74 -85 21 -156 41 -158 43 -3 3 -2 13 1 23 6 17 13 18 99 11 50 -4
209 -12 352 -16 l260 -9 32 30 32 30 108 -6 c80 -5 120 -3 153 7 59 19 71 19
64 1z m-1139 -55 c-35 -39 -102 -55 -230 -55 -102 0 -120 2 -123 16 -2 13 13
17 95 23 54 4 130 13 168 20 39 7 79 14 89 15 18 1 18 0 1 -19z m-3342 -10
c62 -11 141 -21 177 -23 49 -3 64 -8 62 -18 -6 -26 -27 -30 -118 -25 -96 6
-185 32 -226 66 -29 24 -30 24 105 0z m-105 -29 c35 -22 -327 -145 -609 -207
-101 -22 -198 -19 -260 7 -46 20 -99 68 -99 90 0 12 63 11 115 -1 21 -5 44 -5
50 -1 5 5 78 11 160 14 161 6 324 31 500 76 131 34 127 33 143 22z m3621 -37
c179 -46 350 -74 500 -79 69 -3 127 -7 129 -10 3 -2 38 -2 78 2 81 7 87 2 53
-41 -33 -42 -96 -69 -174 -74 -58 -4 -94 2 -205 31 -255 67 -578 187 -564 209
3 5 16 7 28 4 11 -4 81 -22 155 -42z m-3566 -72 c10 -10 17 -21 17 -24 0 -12
-183 -88 -305 -128 -171 -55 -330 -84 -392 -69 -59 13 -103 39 -103 60 0 13
14 20 58 29 216 43 510 130 637 189 l60 27 6 -33 c3 -18 13 -41 22 -51z m3327
63 c0 -42 -41 -75 -94 -75 -53 0 -198 44 -216 65 -15 18 -23 17 120 16 92 -1
157 5 188 18 1 1 2 -10 2 -24z m126 -19 c129 -57 313 -118 494 -165 165 -42
176 -47 160 -66 -31 -37 -166 -57 -240 -35 -19 6 -51 13 -70 15 -64 9 -253 76
-372 132 l-117 56 19 25 c11 13 20 38 20 53 0 16 2 29 4 29 2 0 48 -20 102
-44z m-3361 13 c28 -5 88 -9 134 -7 59 2 86 -1 88 -9 6 -16 -113 -52 -194 -60
-59 -6 -63 -4 -92 25 -38 37 -43 78 -8 68 12 -4 45 -11 72 -17z m3113 -89 c26
0 32 -4 32 -20 0 -12 -12 -33 -26 -47 -22 -21 -32 -25 -68 -21 -24 3 -63 13
-88 23 -41 15 -46 21 -52 55 -11 67 -5 69 87 38 45 -15 97 -28 115 -28z
m-2876 29 c2 -5 2 -28 0 -51 -4 -35 -9 -42 -38 -54 -19 -8 -61 -17 -93 -20
-55 -6 -61 -5 -85 19 -14 14 -26 35 -26 45 0 16 10 21 58 26 31 4 82 16 112
26 68 22 68 22 72 9z m3069 -84 c63 -30 175 -74 249 -99 74 -25 136 -50 138
-55 2 -5 -9 -18 -24 -30 -75 -59 -363 13 -477 119 l-45 41 15 39 c9 22 19 40
23 40 4 0 59 -25 121 -55z m-3324 3 c11 -40 10 -45 -14 -69 -71 -75 -349 -161
-447 -139 -41 9 -84 47 -69 60 4 4 80 30 168 58 88 28 196 69 240 91 44 22 87
40 95 40 10 1 20 -14 27 -41z m3017 -60 c-8 -13 -82 -31 -98 -25 -15 6 -23 57
-10 69 7 8 113 -35 108 -44z m-2744 -9 c0 -27 -3 -29 -39 -29 -24 0 -48 8 -62
20 l-24 19 25 1 c14 1 39 7 55 14 37 17 45 12 45 -25z m3007 -76 c32 -17 82
-38 112 -48 l55 -18 -27 -23 c-15 -13 -42 -26 -61 -30 -70 -13 -226 52 -308
128 l-43 40 24 19 c13 10 37 19 55 19 17 0 37 4 45 9 9 6 25 -3 52 -29 21 -20
64 -50 96 -67z m-3140 60 c21 -14 21 -16 7 -38 -40 -61 -212 -145 -297 -145
-43 0 -108 26 -114 47 -3 6 27 20 73 34 73 22 174 77 202 112 11 13 24 15 60
10 26 -3 57 -13 69 -20z m2881 -53 c38 -44 123 -96 205 -125 69 -25 81 -45 42
-71 -40 -26 -120 -15 -191 27 -100 60 -207 170 -190 197 2 4 26 7 54 7 43 -1
53 -5 80 -35z m-2738 -4 c0 -31 -125 -146 -199 -183 -72 -37 -141 -44 -179
-17 -41 28 -28 48 47 72 76 25 178 86 207 125 16 22 26 25 72 24 45 -1 52 -4
52 -21z m2766 -173 c41 -25 74 -52 74 -59 0 -7 -10 -23 -22 -34 -19 -17 -31
-20 -63 -15 -21 3 -54 15 -71 26 -40 24 -144 135 -144 153 0 7 9 21 20 31 11
10 20 29 20 42 0 21 7 17 56 -36 31 -33 89 -82 130 -108z m-2736 122 c0 -14 9
-34 20 -45 l21 -21 -21 -29 c-35 -49 -132 -130 -170 -140 -48 -13 -62 -13 -88
6 -35 24 -27 49 26 80 69 40 143 100 172 139 30 41 40 44 40 10z m3518 5 c22
0 9 -62 -39 -189 -36 -96 -38 -107 -23 -116 151 -90 209 -188 235 -395 22
-186 -31 -333 -188 -516 -54 -63 -59 -72 -52 -103 4 -18 3 -47 -2 -64 -10 -35
-46 -77 -66 -77 -8 0 -43 -26 -78 -57 -53 -47 -62 -60 -54 -75 13 -24 27 -23
71 7 25 17 39 21 44 14 4 -6 9 -51 12 -99 4 -71 1 -101 -17 -158 -37 -124
-141 -249 -279 -338 l-59 -38 20 -39 c18 -34 19 -45 9 -88 -12 -52 -89 -202
-101 -197 -4 2 -55 35 -114 73 -92 60 -106 73 -102 92 5 21 3 22 -20 13 -22
-8 -39 -3 -110 36 l-85 46 29 33 c37 43 45 81 32 147 -25 120 -106 208 -192
210 -30 1 -52 8 -69 23 -14 12 -36 29 -50 38 -28 19 -100 23 -117 6 -9 -9 -20
-2 -44 25 -43 50 -78 66 -142 66 -70 0 -88 18 -58 56 25 31 26 58 6 98 -8 15
-15 29 -15 31 0 1 18 5 40 9 23 3 54 19 74 36 25 22 44 30 71 30 56 0 123 43
146 93 10 23 19 51 19 63 0 11 13 45 30 75 53 97 51 102 -111 231 -77 62 -134
114 -127 116 7 3 33 13 58 25 26 11 68 20 100 21 53 1 56 2 73 39 10 20 24 37
31 37 15 0 66 52 66 67 0 6 16 23 35 37 19 15 35 36 35 46 0 11 12 26 30 35
16 8 37 29 45 45 9 17 21 30 29 30 19 0 54 41 67 78 6 18 17 32 24 32 24 0 73
50 80 80 6 25 11 30 37 30 33 0 84 31 92 58 5 13 19 17 58 19 56 2 96 24 113
61 6 14 19 22 33 22 28 0 58 15 92 45 24 21 29 22 97 12 88 -13 144 1 182 45
21 24 32 28 55 24 16 -3 35 -6 44 -6z m-4208 -67 c63 5 81 3 91 -9 18 -22 64
-44 92 -44 18 0 28 -8 37 -30 15 -37 53 -58 117 -67 35 -5 53 -14 71 -34 13
-16 41 -34 63 -40 25 -8 39 -18 39 -29 0 -24 38 -70 66 -81 14 -5 28 -19 33
-32 12 -32 60 -87 75 -87 7 0 18 -11 24 -24 6 -14 25 -35 41 -47 17 -13 31
-31 31 -41 0 -11 15 -33 33 -51 19 -18 41 -45 51 -60 9 -15 28 -33 42 -39 13
-6 24 -17 24 -25 0 -8 11 -25 25 -39 21 -20 34 -25 68 -23 26 1 56 -5 77 -16
19 -10 46 -21 59 -25 22 -5 11 -17 -117 -114 -137 -104 -142 -109 -142 -144 0
-20 11 -61 25 -90 14 -30 25 -63 25 -75 0 -72 86 -159 162 -163 27 -1 48 -10
66 -27 15 -14 39 -30 54 -36 l26 -10 -14 -47 c-13 -44 -13 -50 5 -80 l20 -33
-27 -17 c-19 -12 -43 -17 -88 -15 -53 2 -65 -1 -91 -23 -19 -16 -33 -40 -37
-61 -5 -27 -11 -35 -24 -31 -9 2 -27 7 -40 11 -38 11 -99 -5 -143 -37 -30 -21
-55 -31 -88 -32 -175 -10 -174 -191 2 -266 l50 -22 -79 -42 c-43 -23 -97 -53
-120 -66 l-41 -24 -51 32 c-29 18 -52 30 -52 27 0 -2 10 -25 23 -51 l22 -46
-25 -17 c-14 -9 -63 -44 -109 -79 -97 -73 -91 -74 -146 31 -62 120 -43 201 57
242 l43 17 -25 16 c-45 28 -147 139 -184 201 -72 118 -102 263 -76 370 12 50
13 51 27 32 17 -25 64 -51 93 -51 14 0 20 6 20 23 0 28 -70 72 -101 64 -11 -3
-19 0 -19 7 0 6 -15 20 -32 31 -48 28 -127 104 -155 149 -59 93 -83 222 -64
346 12 75 20 96 28 73 3 -7 16 -13 29 -13 36 0 32 31 -21 155 -116 274 -111
550 12 712 22 29 27 31 55 21 18 -6 62 -8 108 -5z m3185 -2 c9 -29 57 -86 106
-126 24 -20 52 -43 62 -51 40 -32 -10 -110 -62 -98 -42 10 -115 61 -170 119
-51 54 -59 85 -21 85 22 0 47 28 55 63 8 32 21 35 30 8z m-2365 -94 c16 -6 30
-15 30 -19 0 -17 -87 -102 -142 -139 -68 -46 -118 -52 -142 -17 -26 37 -20 71
17 93 46 27 136 114 155 150 l15 30 18 -43 c13 -31 28 -47 49 -55z m2290 -83
c25 -26 71 -64 103 -86 62 -42 65 -52 31 -105 -12 -18 -20 -21 -47 -16 -40 8
-117 56 -180 114 -47 42 -48 46 -40 79 7 26 15 36 34 38 13 2 28 8 34 13 14
14 17 12 65 -37z m-2230 11 c7 -8 23 -15 35 -15 18 0 24 -7 28 -32 6 -40 -25
-77 -124 -144 -86 -59 -120 -65 -148 -25 -34 47 -27 64 37 104 31 19 77 56
102 81 50 51 52 52 70 31z m2127 -125 c30 -27 79 -64 109 -82 67 -41 72 -74
12 -97 -23 -8 -33 -5 -70 21 -128 91 -189 186 -130 201 10 3 19 5 21 6 2 0 28
-21 58 -49z m-1995 -3 c17 -28 -74 -128 -164 -181 -38 -22 -51 -25 -67 -16
-19 10 -46 48 -39 55 2 2 37 26 78 53 41 28 88 64 105 82 23 24 35 30 55 25
14 -4 28 -12 32 -18z m791 -74 c37 -13 81 -18 152 -18 113 1 174 21 232 77 18
18 34 30 36 27 45 -57 79 -138 91 -216 6 -42 6 -43 -20 -33 -14 6 -72 10 -128
10 -141 0 -140 1 -143 -179 -4 -164 -16 -285 -37 -366 -22 -85 -21 -126 4
-132 19 -5 19 -6 -5 -47 -28 -48 -32 -88 -10 -106 13 -11 13 -15 0 -33 -8 -12
-15 -32 -15 -44 0 -13 -4 -23 -10 -23 -5 0 -10 11 -10 24 0 14 -4 27 -9 31 -5
3 -7 30 -4 60 5 43 2 61 -15 89 -17 28 -18 36 -7 36 24 0 28 45 10 122 -24
105 -35 213 -39 370 -3 156 -13 183 -71 194 -37 7 -198 -8 -228 -21 -17 -7
-18 -4 -12 31 14 80 37 147 68 194 l32 48 43 -39 c24 -21 67 -46 95 -56z
m1134 -3 c30 -33 77 -74 104 -92 61 -39 65 -69 11 -97 -21 -11 -29 -9 -63 15
-51 35 -137 128 -157 171 -16 33 -32 44 -32 21 0 -36 110 -164 195 -225 25
-18 28 -25 19 -40 -6 -10 -23 -24 -38 -31 -25 -13 -30 -11 -76 24 -58 44 -122
127 -145 188 l-17 44 33 31 c20 18 45 31 61 31 15 0 30 5 33 10 10 16 13 14
72 -50z m-1847 10 c19 -4 29 -8 23 -9 -7 0 -19 -14 -27 -29 -22 -42 -100 -126
-157 -168 l-50 -37 -27 20 c-15 11 -28 31 -30 44 -2 19 8 30 51 56 29 17 75
56 102 86 32 35 56 53 65 50 8 -3 31 -9 50 -13z m75 -96 c-36 -88 -165 -224
-210 -224 -25 0 -65 34 -65 55 0 7 11 17 24 23 38 17 155 131 182 178 l26 43
28 -21 c28 -20 29 -22 15 -54z m1573 4 c35 -76 95 -154 145 -188 27 -18 37
-32 37 -52 0 -36 -10 -40 -72 -27 -40 9 -61 21 -86 48 -50 53 -81 111 -93 173
-10 48 -9 59 6 82 10 14 21 26 26 26 5 0 22 -28 37 -62z m-1507 10 c10 -13 18
-39 19 -59 0 -50 -50 -145 -104 -198 -42 -41 -50 -45 -106 -49 -55 -4 -60 -3
-60 16 0 13 32 53 84 104 60 60 91 100 112 145 16 35 31 63 32 63 2 0 12 -10
23 -22z m1413 -49 c10 -61 49 -137 101 -196 43 -49 44 -53 26 -62 -42 -23 -78
-13 -114 32 -55 67 -79 125 -85 200 l-5 67 35 0 c34 0 36 -2 42 -41z m-1302
-40 c-7 -95 -34 -157 -100 -231 -38 -42 -58 -46 -103 -22 l-31 15 56 59 c59
62 106 146 106 192 0 21 5 27 28 31 43 6 47 3 44 -44z m1246 -124 c17 -30 25
-52 19 -48 -7 3 -40 26 -74 50 -49 35 -64 51 -69 77 -11 63 -3 80 41 86 l40 5
7 -58 c4 -34 19 -80 36 -112z m-1164 125 c22 0 26 -5 26 -29 0 -69 -10 -86
-80 -134 -38 -26 -71 -47 -73 -47 -3 0 8 25 25 55 20 37 32 76 35 115 5 53 8
58 24 50 10 -6 29 -10 43 -10z m414 -38 c6 -8 12 -37 12 -64 l0 -48 -82 0
c-73 0 -133 -9 -190 -26 -16 -5 -18 2 -18 49 0 83 18 99 116 108 97 8 145 3
162 -19z m456 14 c35 -15 46 -42 46 -112 0 -39 4 -38 -75 -19 -33 8 -94 15
-136 15 l-76 0 -7 41 c-5 30 -2 48 9 65 14 22 22 24 111 24 58 0 107 -5 128
-14z m-764 -16 c11 -1 10 -4 -5 -16 -47 -37 -55 -37 -55 -3 0 28 3 31 23 25
12 -3 29 -6 37 -6z m1125 -251 c160 -127 294 -234 299 -239 13 -13 -60 -156
-92 -181 -14 -10 -32 -19 -40 -19 -9 0 -111 95 -228 211 -204 203 -212 213
-218 258 -12 88 -21 201 -16 201 3 0 136 -104 295 -231z m-1129 59 c-4 -100
-8 -124 -23 -138 -205 -194 -427 -390 -442 -390 -28 0 -61 31 -76 70 -7 19
-21 56 -32 82 -17 47 -17 48 2 62 11 8 144 109 295 225 151 115 276 210 278
211 2 0 1 -55 -2 -122z m704 52 c12 -18 13 -80 2 -80 -4 0 -24 11 -44 25 -51
35 -77 33 -85 -6 -5 -25 -10 -30 -32 -27 -30 3 -39 36 -21 82 10 28 11 28 91
24 57 -2 83 -7 89 -18z m-376 -29 c8 -51 0 -71 -29 -71 -16 0 -25 7 -29 25 -8
33 -49 33 -98 0 l-36 -24 -6 25 c-8 29 1 65 18 76 6 4 48 8 92 8 l81 0 7 -39z
m461 15 c27 -11 35 -22 40 -49 4 -20 4 -45 0 -57 -6 -18 -12 -21 -38 -16 -48
10 -57 23 -57 82 0 59 3 61 55 40z m-685 -20 c0 -13 3 -37 6 -54 5 -27 2 -32
-24 -46 -46 -24 -60 -20 -67 17 -8 42 9 85 37 97 37 14 48 11 48 -14z m561
-48 c59 -41 71 -64 57 -112 -13 -40 -28 -38 -28 4 0 28 -14 48 -23 33 -2 -5 6
-62 19 -128 25 -130 78 -253 152 -349 20 -27 41 -55 46 -61 11 -15 -17 -48
-44 -52 -66 -10 -183 282 -235 585 -15 85 -14 112 2 112 4 0 28 -15 54 -32z
m-415 -2 c6 -15 -16 -143 -42 -246 -51 -206 -123 -386 -167 -415 -13 -8 -37
-17 -54 -21 -46 -9 -51 20 -14 70 50 67 118 187 145 256 24 61 69 251 61 258
-10 10 -23 -12 -30 -50 l-7 -43 -16 47 c-19 59 -9 85 49 128 46 33 67 37 75
16z m330 -49 c1 -1 5 -20 8 -43 8 -46 -1 -58 -51 -69 -33 -7 -33 -6 -33 34 0
22 5 52 10 66 9 23 14 26 38 20 15 -4 28 -7 28 -8z m-249 -27 c7 -14 13 -42
13 -63 0 -32 -3 -38 -17 -34 -10 3 -30 8 -46 11 -26 6 -27 9 -21 49 3 23 8 48
10 55 6 21 47 9 61 -18z m962 -410 c12 0 31 5 43 11 11 6 22 9 24 6 9 -9 -46
-65 -76 -77 -60 -25 -95 -3 -244 159 -172 187 -173 188 -178 241 -3 25 -8 54
-13 65 -4 11 89 -76 207 -192 152 -151 221 -213 237 -213z m-484 398 c27 -12
39 -40 33 -79 -3 -23 -5 -23 -47 17 -31 28 -42 46 -38 57 8 20 17 21 52 5z
m-725 -16 c0 -10 -18 -36 -40 -57 l-40 -39 0 42 c0 35 4 44 28 56 36 20 52 20
52 -2z m-100 -80 l0 -49 -167 -172 c-162 -167 -170 -173 -213 -178 -39 -4 -51
-1 -78 22 -18 15 -37 36 -43 47 -9 17 -8 18 10 9 49 -27 64 -17 278 179 113
105 208 190 210 190 2 0 3 -22 3 -48z m812 1 c27 -29 37 -50 43 -87 l7 -49
-33 7 c-62 12 -79 31 -79 85 0 51 7 81 19 81 4 0 23 -17 43 -37z m-688 5 c3
-13 6 -41 6 -64 0 -38 -3 -43 -43 -64 -100 -53 -105 17 -8 123 30 33 37 34 45
5z m496 -28 c0 -17 -6 -33 -14 -36 -7 -3 -37 -37 -66 -76 -30 -40 -56 -66 -58
-59 -6 18 17 131 34 163 13 25 31 34 82 37 18 1 22 -4 22 -29z m-283 0 c32
-19 44 -47 56 -132 8 -55 -8 -55 -45 -1 -18 26 -48 63 -66 82 -57 58 -17 95
55 51z m593 -74 c25 -29 94 -106 154 -170 106 -113 108 -117 91 -136 -9 -10
-33 -24 -51 -30 -30 -10 -37 -9 -69 16 -42 31 -127 142 -154 199 -18 38 -36
176 -22 174 3 0 26 -24 51 -53z m-285 -46 c-3 -15 -24 -55 -47 -87 -73 -105
-128 -151 -128 -105 0 21 77 149 127 211 31 36 37 41 45 27 5 -9 7 -30 3 -46z
m-653 -19 c-1 -56 -5 -67 -56 -144 -70 -107 -148 -181 -179 -172 -32 10 -67
34 -74 51 -4 10 47 68 148 172 85 87 156 157 158 155 2 -1 3 -29 3 -62z m301
12 c77 -100 107 -154 107 -192 l0 -35 -36 35 c-60 58 -134 176 -134 215 0 19
4 34 9 34 6 0 30 -26 54 -57z m518 -3 c22 -12 44 -31 48 -43 12 -31 29 -146
23 -152 -11 -10 -99 137 -116 193 -9 27 -5 27 45 2z m-691 4 c0 -4 -16 -39
-35 -78 -38 -78 -79 -135 -90 -124 -11 10 13 128 31 156 18 27 94 64 94 46z
m555 -83 c8 -45 3 -56 -68 -163 -40 -60 -57 -78 -75 -78 -13 0 -32 -5 -43 -10
-17 -9 -19 -7 -19 18 0 30 16 55 119 182 34 41 61 78 61 82 0 5 4 8 9 8 5 0
12 -18 16 -39z m-337 -119 c59 -69 72 -91 72 -119 0 -30 -2 -33 -19 -23 -11 5
-29 10 -40 10 -23 0 -87 80 -130 161 -19 37 -23 53 -16 85 l7 39 27 -34 c14
-19 59 -73 99 -119z m622 5 c24 -32 54 -67 68 -78 l25 -19 -24 -2 c-93 -5
-123 22 -125 115 -1 32 2 55 5 50 4 -4 27 -34 51 -66z m-1004 -85 c-12 -23
-24 -30 -57 -35 -23 -3 -45 -11 -49 -17 -6 -9 -9 -9 -15 -1 -3 7 15 35 44 67
28 30 58 69 68 85 l18 31 3 -51 c2 -30 -3 -61 -12 -79z m791 37 l41 -77 -41
-6 c-23 -4 -47 -11 -53 -17 -14 -11 -99 12 -99 27 0 16 100 163 106 156 3 -4
24 -41 46 -83z m-469 -91 c-7 -4 -20 -8 -28 -8 -9 0 -21 -5 -26 -10 -8 -8 -28
-5 -67 7 -31 10 -57 20 -57 23 0 3 18 40 41 83 l41 79 54 -83 c40 -61 51 -85
42 -91z m737 -13 c23 -19 45 -44 48 -55 5 -21 0 -21 -49 -3 -7 2 -18 -5 -26
-16 -10 -14 -21 -18 -37 -14 -19 5 -22 11 -19 34 5 34 -11 39 -20 7 -5 -21 -6
-21 -14 7 -10 39 13 75 49 75 15 0 44 -15 68 -35z m-1058 -19 l16 -35 24 19
c13 10 37 21 53 25 37 8 106 -11 131 -36 23 -23 26 -69 4 -69 -8 0 -19 -9 -25
-20 -6 -11 -21 -20 -35 -20 -13 0 -27 -4 -30 -10 -12 -20 -39 -9 -77 30 -32
34 -41 39 -57 30 -29 -15 -41 -12 -41 11 0 28 -19 61 -31 54 -6 -4 -5 -13 1
-25 13 -25 13 -77 -1 -85 -5 -4 -19 1 -30 11 -17 15 -25 16 -50 7 -26 -10 -30
-9 -35 11 -7 31 11 73 38 87 13 7 28 18 33 25 11 13 35 21 73 23 16 1 27 -8
39 -33z m886 15 c35 -14 40 -46 12 -79 -20 -23 -30 -26 -84 -27 -33 0 -61 2
-61 5 0 4 -9 16 -20 27 -19 21 -19 21 1 46 26 34 100 47 152 28z m-453 -23
c13 -14 20 -35 20 -59 0 -38 -13 -58 -25 -39 -8 13 -68 13 -81 0 -6 -6 -21 -6
-42 2 -41 16 -63 76 -34 93 54 32 133 33 162 3z m253 10 c25 -19 11 -50 -36
-80 -50 -30 -111 -42 -126 -24 -22 26 -25 75 -6 96 15 16 31 20 85 20 37 0 73
-5 83 -12z m397 -77 c0 -6 -10 -22 -23 -37 l-23 -27 4 37 c3 27 9 36 23 36 10
0 19 -4 19 -9z m-367 -62 c-25 -9 -47 9 -32 28 10 11 15 11 31 -4 18 -17 19
-18 1 -24z m217 4 c-11 -21 -20 -44 -20 -51 0 -8 -10 -5 -30 9 l-30 22 29 18
c16 10 32 22 35 28 4 6 14 11 22 11 11 0 10 -7 -6 -37z m-100 19 c0 -5 -9 -17
-19 -26 -18 -17 -19 -16 -17 8 1 18 7 26 19 26 9 0 17 -4 17 -8z m-427 -9 c9
-16 -13 -53 -31 -53 -15 0 -18 6 -14 30 3 21 10 30 23 30 10 0 20 -3 22 -7z
m607 -2 c0 -5 -7 -14 -15 -21 -27 -23 -5 -29 41 -12 l46 17 20 -25 c11 -14 28
-35 39 -47 22 -26 69 -31 69 -8 0 8 -9 15 -20 15 -11 0 -20 5 -20 10 0 17 63
11 93 -8 15 -10 38 -33 51 -51 21 -28 23 -37 14 -63 -11 -30 2 -120 23 -159
12 -23 -9 -39 -50 -39 -30 0 -44 9 -91 59 -59 62 -94 86 -110 76 -17 -10 -11
-19 22 -38 23 -13 28 -21 20 -29 -19 -19 -86 8 -122 49 -60 68 -93 178 -70
233 15 37 60 67 60 41z m-1130 -22 c0 -11 -4 -17 -10 -14 -5 3 -10 13 -10 21
0 8 5 14 10 14 6 0 10 -9 10 -21z m714 13 c2 -4 0 -14 -5 -22 -8 -13 -10 -13
-19 0 -5 8 -10 18 -10 23 0 10 28 9 34 -1z m-566 -35 l3 -28 -30 16 c-33 16
-39 30 -18 38 25 11 42 1 45 -26z m449 -4 c-3 -3 -11 -2 -17 2 -8 5 -7 11 2
22 12 15 13 14 16 -1 2 -10 1 -20 -1 -23z m203 -3 c42 -33 90 -39 110 -15 20
24 41 18 84 -28 80 -84 97 -207 29 -207 -58 1 -106 19 -142 54 -38 37 -80 50
-88 28 -3 -7 8 -17 26 -23 40 -14 40 -29 1 -29 -88 0 -190 112 -190 210 0 38
10 38 53 0 40 -35 51 -38 44 -11 -5 21 9 51 25 51 5 0 27 -13 48 -30z m-492 0
c7 -11 10 -20 6 -20 -13 0 -44 21 -44 30 0 17 25 11 38 -10z m127 10 c-3 -5
-10 -10 -16 -10 -5 0 -9 5 -9 10 0 6 7 10 16 10 8 0 12 -4 9 -10z m-70 -10 c3
-5 -1 -10 -9 -10 -9 0 -16 5 -16 10 0 6 4 10 9 10 6 0 13 -4 16 -10z m512 4
c-3 -3 -12 -4 -19 -1 -8 3 -5 6 6 6 11 1 17 -2 13 -5z m-251 -117 c14 -27 24
-61 22 -75 -3 -26 -5 -27 -81 -30 -69 -3 -81 0 -110 22 -43 33 -87 44 -87 22
0 -10 14 -22 33 -29 l32 -11 -40 -7 c-79 -14 -160 49 -201 157 -19 50 -15 61
15 45 36 -20 251 -17 296 3 28 13 32 12 63 -18 19 -17 45 -53 58 -79z m-585
88 c69 -5 101 -25 136 -87 30 -53 29 -82 -3 -107 -32 -25 -74 -27 -137 -5 -25
8 -58 14 -74 12 -36 -4 -38 -32 -3 -33 41 0 38 -19 -7 -34 -33 -12 -49 -12
-80 -3 -52 16 -120 62 -144 98 -19 29 -25 80 -11 100 24 36 92 43 159 18 40
-15 44 -15 68 0 31 21 24 38 -13 30 -26 -5 -26 -5 -8 10 11 9 28 13 38 10 10
-3 46 -7 79 -9z m1556 -85 c18 -10 44 -37 59 -60 26 -39 62 -59 83 -45 18 10
13 21 -16 32 l-28 11 30 1 c68 2 132 -68 160 -174 24 -93 -1 -145 -71 -145
-21 0 -44 18 -99 75 -39 41 -77 75 -83 75 -21 0 -13 -23 16 -48 l27 -23 -44 5
c-51 5 -91 39 -121 101 -31 64 -40 127 -23 166 23 54 55 63 110 29z m-1950
-61 c39 -14 133 -109 133 -134 0 -30 -10 -39 -60 -58 -34 -13 -62 -15 -118
-10 -57 5 -76 3 -82 -7 -14 -22 -2 -29 35 -23 47 8 44 -4 -7 -27 -71 -32 -125
-25 -201 27 -69 47 -85 106 -41 150 25 25 29 26 108 19 61 -4 87 -2 101 8 25
18 11 40 -16 25 -35 -18 -33 -1 2 20 37 23 101 27 146 10z m611 -41 c19 -19
14 -28 -18 -28 -28 0 -29 2 -18 20 15 23 20 24 36 8z m437 2 c3 -5 1 -10 -4
-10 -6 0 -11 5 -11 10 0 6 2 10 4 10 3 0 8 -4 11 -10z m426 -46 c12 -14 11
-16 -5 -13 -11 2 -21 10 -24 17 -5 17 13 15 29 -4z m-181 -39 c353 -50 711
-174 1027 -355 126 -73 304 -193 383 -258 30 -25 57 -47 59 -49 12 -9 -46 -86
-211 -276 l-33 -39 -105 67 c-311 199 -692 338 -1085 397 -143 21 -609 18
-760 -6 -148 -22 -388 -83 -515 -129 -206 -75 -441 -194 -598 -303 -35 -24
-65 -44 -67 -44 -7 0 -170 196 -202 243 l-34 50 23 25 c42 45 210 182 297 241
386 263 808 412 1291 455 89 8 427 -4 530 -19z m-1087 -15 c16 0 -14 -20 -30
-20 -7 0 -13 7 -13 16 0 11 5 14 16 10 9 -3 21 -6 27 -6z m1657 -60 c0 -5 -7
-7 -15 -4 -8 4 -12 10 -9 15 6 11 24 2 24 -11z m959 -346 c27 -35 28 -102 0
-155 -11 -22 -23 -39 -27 -37 -4 2 -33 23 -64 48 l-57 45 26 45 c36 63 53 80
79 80 12 0 32 -12 43 -26z m-3626 -70 c17 -25 32 -49 32 -53 0 -4 -28 -33 -61
-64 l-61 -57 -27 38 c-35 51 -35 109 0 151 40 47 76 43 117 -15z m2112 -89
c450 -59 869 -230 1235 -503 149 -111 382 -344 492 -492 268 -360 423 -748
474 -1186 19 -165 14 -460 -11 -619 -66 -424 -235 -808 -504 -1145 -953 -1197
-2782 -1295 -3870 -209 -195 196 -345 405 -466 651 -172 350 -247 670 -247
1053 -1 278 34 499 116 748 293 888 1068 1537 2021 1692 231 37 524 41 760 10z
m1644 -69 c29 -46 27 -126 -2 -126 -6 0 -24 -12 -40 -27 l-29 -28 -39 44 c-43
48 -47 65 -22 101 54 81 97 93 132 36z m-3868 -56 c56 -59 60 -87 18 -122 -39
-33 -52 -34 -87 -9 -15 10 -36 20 -47 22 -30 6 -33 86 -5 122 33 41 74 37 121
-13z m3724 -128 l38 -43 -99 -100 c-54 -54 -101 -99 -104 -99 -3 1 -22 15 -43
33 l-37 32 97 113 c54 62 100 111 103 110 4 -2 24 -22 45 -46z m295 8 c16 -16
29 -70 17 -70 -2 0 -26 20 -53 45 l-49 45 33 0 c19 0 40 -8 52 -20z m-4259
-65 c-47 -45 -58 -44 -47 1 4 16 19 30 38 39 54 22 58 6 9 -40z m446 -80 l52
-60 -37 -32 c-20 -18 -42 -32 -48 -33 -7 0 -47 43 -89 96 -66 82 -75 98 -61
106 9 5 28 20 44 33 l27 23 30 -36 c17 -20 53 -64 82 -97z m3784 27 c16 -25
29 -51 29 -56 0 -6 -59 -64 -131 -129 l-130 -118 -74 66 -75 67 132 138 132
138 44 -30 c24 -17 57 -51 73 -76z m-4030 0 c61 -64 159 -185 159 -195 0 -8
-131 -132 -139 -132 -4 0 -63 52 -130 116 -139 131 -138 129 -72 202 37 41 87
77 107 77 6 0 40 -30 75 -68z m4194 -27 c33 -32 33 -85 3 -119 -13 -13 -85
-77 -162 -141 l-138 -117 -31 31 c-28 28 -30 32 -15 43 9 7 73 64 141 127 123
111 125 114 120 148 -9 56 38 73 82 28z m-4491 -21 c12 -4 13 -11 5 -31 -9
-24 -1 -34 132 -162 l141 -136 -28 -27 -29 -26 -90 75 c-205 170 -225 191
-225 230 0 58 45 96 94 77z m4671 -109 c27 -26 31 -54 14 -86 -10 -20 -350
-279 -366 -279 -12 0 -83 73 -83 86 0 12 261 253 310 287 37 26 96 22 125 -8z
m-4822 -34 c14 -6 87 -62 164 -127 200 -169 183 -144 138 -203 -21 -27 -43
-47 -49 -44 -62 36 -370 260 -382 279 -41 62 47 126 129 95z m5033 -57 c46
-22 59 -47 44 -84 -9 -22 -71 -66 -255 -184 -133 -86 -245 -156 -248 -156 -8
0 -67 87 -67 98 0 10 354 287 413 323 39 23 68 24 113 3z m-5250 -53 c28 -8
426 -289 438 -310 3 -4 -6 -23 -20 -42 -14 -19 -29 -40 -33 -47 -6 -10 -67 23
-242 133 -248 156 -279 179 -279 205 0 22 30 49 66 60 39 11 35 11 70 1z
m5533 -59 c38 -28 63 -81 57 -125 -9 -77 -33 -95 -356 -257 -165 -82 -301
-150 -304 -150 -7 0 -109 171 -105 174 35 31 558 368 581 375 42 12 96 5 127
-17z m-5768 -34 c40 -13 572 -344 577 -358 4 -12 -100 -189 -112 -190 -5 0
-133 64 -285 141 -172 88 -290 155 -314 178 -49 46 -63 97 -42 148 35 84 92
110 176 81z m5767 -300 c20 -20 15 -102 -8 -130 -12 -17 -64 -44 -142 -76 -68
-28 -182 -75 -255 -105 l-131 -55 -32 59 -31 59 35 15 c20 8 139 67 266 130
224 111 273 128 298 103z m-5570 -160 c138 -68 252 -126 252 -130 0 -4 -11
-32 -24 -62 l-24 -55 -124 51 c-68 28 -179 74 -248 103 -139 57 -170 85 -170
154 0 91 38 84 338 -61z m5556 -110 c20 -28 20 -61 1 -98 -20 -39 -28 -42
-247 -116 l-188 -63 -36 70 -35 70 28 10 c15 5 107 41 203 78 194 76 248 86
274 49z m-5591 -95 c111 -42 205 -79 210 -83 11 -9 -38 -135 -54 -137 -8 -1
-102 28 -209 65 -181 62 -196 70 -218 102 -17 25 -22 43 -18 65 7 34 39 65 68
65 10 0 110 -34 221 -77z m5620 -120 c29 -33 31 -68 5 -98 -20 -23 -53 -35
-218 -79 -107 -29 -198 -52 -201 -50 -8 4 -43 123 -38 128 2 2 83 29 179 59
188 59 247 68 273 40z m-5674 -90 c102 -31 190 -59 194 -63 11 -9 -23 -130
-36 -130 -16 0 -348 89 -380 102 -54 21 -65 92 -21 127 15 12 33 21 42 21 8 0
99 -26 201 -57z m5725 -104 c19 -15 26 -30 26 -54 0 -54 -40 -79 -157 -100
-54 -9 -142 -25 -196 -35 -71 -13 -99 -14 -102 -6 -12 42 -25 109 -21 113 9 9
363 101 392 102 18 1 43 -8 58 -20z m-5763 -85 c96 -25 178 -50 182 -54 14
-13 -12 -120 -29 -120 -29 0 -360 61 -387 72 -27 11 -57 53 -57 81 0 8 9 26
21 41 29 37 65 34 270 -20z m5835 -113 c33 -20 60 -71 51 -95 -15 -37 -55 -48
-230 -62 -94 -7 -197 -15 -229 -17 l-56 -5 -12 65 c-6 36 -10 66 -8 68 5 4
392 63 423 64 17 0 44 -8 61 -18z m-5889 -71 c108 -17 198 -32 201 -34 9 -10
-12 -118 -24 -123 -8 -3 -110 2 -228 10 -268 19 -304 34 -272 111 18 42 51 66
93 66 18 0 122 -14 230 -30z m6049 -144 c36 -36 44 -75 20 -95 -10 -8 -116
-17 -318 -26 -167 -7 -304 -13 -304 -12 -1 1 -5 32 -9 70 l-7 67 33 1 c19 1
115 7 214 14 99 6 215 13 259 14 76 1 79 0 112 -33z m-6156 -46 c91 -5 193
-13 228 -16 l62 -6 0 -63 c0 -35 -3 -66 -7 -68 -5 -2 -143 2 -308 10 -271 12
-302 15 -319 32 -17 17 -18 23 -6 51 7 17 24 40 38 50 29 24 68 25 312 10z
m6297 -139 c105 -48 97 -194 -14 -243 -44 -20 -59 -20 -267 -14 -122 3 -276 9
-342 12 l-122 7 -7 109 c-4 60 -4 112 -1 116 8 7 428 28 606 30 84 1 113 -2
147 -17z m-6279 -53 l272 -11 0 -118 0 -117 -247 -8 c-423 -13 -463 -12 -502
11 -48 28 -72 64 -73 111 -3 57 17 97 60 122 45 26 100 27 490 10z m5859 -254
c231 -6 265 -12 286 -45 15 -24 0 -69 -35 -101 -38 -36 -64 -36 -343 -3 -115
14 -218 25 -227 25 -15 0 -18 9 -18 54 0 82 5 88 59 82 25 -3 150 -8 278 -12z
m-5583 -95 c5 -39 4 -64 -3 -68 -6 -4 -127 -19 -269 -35 -238 -26 -261 -27
-289 -13 -32 17 -56 48 -66 86 -8 34 31 71 80 72 21 1 112 5 203 9 91 3 204 7
251 8 l86 2 7 -61z m5483 -89 c182 -18 228 -28 245 -54 14 -21 8 -63 -12 -89
-37 -47 -67 -48 -291 -9 -112 19 -206 37 -208 38 -2 2 2 33 9 69 15 77 -12 72
257 45z m-5471 -47 c3 -16 10 -45 16 -67 5 -21 7 -40 5 -42 -7 -8 -389 -74
-426 -74 -24 0 -42 9 -67 34 -41 41 -43 74 -9 106 25 23 92 33 462 69 7 0 15
-11 19 -26z m5449 -154 c71 -17 137 -35 147 -40 64 -34 39 -149 -32 -149 -22
0 -398 104 -406 113 -2 2 6 33 17 69 l19 66 63 -14 c34 -8 120 -28 192 -45z
m-5400 -54 c9 -36 16 -67 14 -69 -12 -10 -378 -109 -403 -109 -33 0 -76 41
-76 74 0 29 17 57 43 71 21 11 354 95 388 97 12 1 21 -17 34 -64z m5295 -121
c96 -25 187 -55 203 -66 50 -36 29 -119 -33 -133 -24 -5 -75 9 -220 61 -105
37 -190 72 -190 79 0 6 7 35 16 64 12 41 19 51 32 47 9 -3 96 -26 192 -52z
m-5238 -51 c9 -32 16 -58 15 -59 -13 -13 -371 -138 -396 -138 -38 0 -81 40
-81 75 0 33 52 76 111 93 217 63 325 92 329 89 2 -2 12 -29 22 -60z m5400
-213 c54 -58 43 -150 -19 -150 -23 0 -426 180 -446 199 -4 4 1 27 11 52 11 24
22 52 25 61 5 14 32 6 204 -58 148 -56 205 -82 225 -104z m-5339 68 c15 -34
26 -62 24 -63 -6 -6 -416 -193 -435 -199 -15 -5 -32 -2 -47 8 -20 13 -25 25
-25 61 0 76 26 95 250 180 107 41 198 74 201 75 3 0 18 -28 32 -62z m5350
-296 c54 -52 54 -152 0 -152 -19 0 -529 246 -552 266 -4 4 37 104 51 121 11
14 459 -196 501 -235z m-5274 144 c17 -29 31 -58 31 -63 0 -12 -530 -283 -553
-283 -61 0 -61 107 0 162 16 15 467 236 485 237 3 1 20 -23 37 -53z m5005
-221 c334 -171 365 -194 373 -268 13 -113 -99 -180 -212 -128 -31 14 -569 343
-583 356 -4 4 110 195 116 195 3 0 140 -70 306 -155z m-4890 13 c31 -50 53
-94 49 -99 -31 -29 -585 -361 -616 -370 -80 -21 -144 10 -172 85 -21 55 -10
98 38 143 29 28 608 332 633 333 6 0 36 -41 68 -92z m4700 -249 c122 -78 229
-150 239 -161 43 -50 -5 -108 -89 -108 -37 0 -61 15 -255 156 -118 86 -215
157 -216 158 -1 1 14 26 33 55 26 38 40 51 52 46 8 -3 115 -69 236 -146z
m-4586 71 c17 -27 32 -53 32 -57 -1 -10 -391 -294 -429 -312 -38 -18 -89 -8
-124 24 -34 32 -34 37 1 75 22 25 466 319 482 320 3 0 20 -23 38 -50z m4431
-200 c194 -144 218 -169 200 -217 -9 -25 -57 -53 -91 -53 -13 1 -34 7 -47 14
-29 16 -339 288 -340 299 -1 7 78 97 85 97 2 0 89 -63 193 -140z m-4282 19
c-1 -4 -76 -72 -167 -152 -171 -152 -203 -171 -258 -151 -14 5 -34 21 -45 36
-36 49 -16 73 197 229 l191 140 42 -48 c23 -26 41 -51 40 -54z m4128 -162
c146 -130 160 -146 163 -179 4 -48 -24 -78 -73 -78 -30 0 -51 16 -195 151 -88
84 -160 154 -160 158 0 10 84 91 95 91 6 0 82 -64 170 -143z m-4042 85 l47
-48 -159 -149 c-87 -82 -168 -152 -180 -156 -27 -11 -65 4 -85 33 -22 30 -20
50 6 83 24 31 308 285 318 285 3 0 27 -22 53 -48z m3900 -220 c122 -122 149
-154 153 -184 8 -48 -20 -78 -75 -78 -43 0 -50 6 -238 222 l-93 106 46 41 c26
23 50 41 53 41 3 0 73 -67 154 -148z m-3779 101 c22 -20 43 -40 44 -45 6 -14
-269 -319 -296 -329 -67 -26 -130 50 -92 111 9 16 292 300 299 300 2 0 22 -17
45 -37z m3650 -233 c170 -189 186 -224 125 -288 -45 -49 -79 -22 -259 208
l-122 155 47 43 c26 23 51 42 56 42 4 0 73 -72 153 -160z m-3512 107 l47 -42
-125 -160 c-143 -183 -184 -225 -218 -225 -56 0 -86 94 -48 152 27 43 276 317
287 317 6 0 31 -19 57 -42z m158 -116 c25 -19 47 -36 48 -37 5 -3 -302 -409
-336 -446 -31 -34 -65 -36 -84 -5 -24 36 -29 74 -15 114 17 48 316 425 331
416 6 -4 31 -22 56 -42z m3210 -146 c84 -104 156 -200 161 -213 28 -72 -10
-162 -62 -149 -16 4 -78 78 -198 237 -96 126 -172 232 -170 234 25 24 106 85
111 83 3 -1 75 -87 158 -192z m-135 -156 c99 -133 188 -257 198 -277 27 -56
19 -134 -19 -173 -79 -83 -159 -76 -234 21 -27 34 -300 551 -300 567 0 7 159
103 170 102 3 0 86 -108 185 -240z m-2892 186 c42 -22 77 -43 77 -48 0 -18
-281 -567 -305 -596 -69 -82 -166 -81 -229 1 -33 44 -41 93 -22 144 14 40 385
547 396 542 4 -2 41 -21 83 -43z m2626 -310 c161 -314 166 -341 54 -337 -63 2
-79 23 -204 274 -65 131 -119 240 -119 243 0 3 122 70 137 75 1 0 60 -115 132
-255z m-2410 212 l49 -22 -107 -231 c-58 -127 -113 -241 -121 -253 -19 -27
-86 -51 -123 -44 -17 3 -33 15 -39 28 -11 25 18 94 168 398 88 177 75 169 173
124z m150 -58 c28 -12 51 -26 51 -30 0 -5 -30 -98 -66 -207 -72 -214 -93 -248
-154 -258 -44 -7 -90 25 -90 63 0 23 47 136 159 386 17 37 34 67 39 67 5 0 32
-10 61 -21z m2049 -206 c115 -231 119 -253 58 -278 -41 -17 -78 -9 -109 23
-23 24 -183 409 -174 418 8 8 112 52 117 49 3 -2 51 -97 108 -212z m-1796 122
c510 -123 1054 -117 1441 17 32 11 62 16 67 12 14 -16 180 -405 180 -424 0
-59 -276 -229 -489 -300 -184 -62 -265 -74 -496 -74 -242 -1 -337 12 -525 74
-188 61 -456 209 -482 265 -8 19 2 60 57 227 72 217 81 238 95 238 5 0 73 -16
152 -35z"/>
<path d="M4274 9979 c-10 -17 23 -46 38 -31 8 8 8 15 -2 27 -15 18 -26 19 -36
4z"/>
<path d="M2210 9549 c0 -29 40 -99 57 -99 17 0 17 21 -1 57 -8 15 -17 36 -20
46 -8 24 -36 22 -36 -4z"/>
<path d="M3378 8958 c-9 -24 3 -38 32 -38 15 0 30 -6 33 -13 7 -19 57 -20 57
-1 0 11 6 13 20 9 11 -3 20 -2 20 4 0 15 -39 24 -92 22 -37 -1 -48 2 -48 14 0
18 -16 20 -22 3z"/>
<path d="M5536 6972 c-25 -20 -54 -44 -66 -52 -26 -19 -18 -50 14 -50 41 0
126 71 126 106 0 37 -27 36 -74 -4z"/>
<path d="M1424 7353 c11 -43 36 -77 48 -65 15 15 -15 86 -37 90 -15 3 -17 -1
-11 -25z"/>
<path d="M1617 6673 c-17 -16 -4 -45 32 -69 45 -29 75 -29 79 2 2 16 -8 28
-42 48 -47 27 -58 30 -69 19z"/>
<path d="M3430 6161 c0 -6 4 -12 9 -16 5 -3 23 -31 40 -62 36 -66 43 -138 14
-146 -10 -3 11 -5 47 -5 36 0 57 2 48 5 -31 8 -24 87 14 147 17 28 38 57 47
64 12 10 8 12 -25 12 -28 0 -35 -3 -24 -10 13 -8 12 -16 -9 -55 -13 -25 -27
-45 -30 -45 -10 0 -52 90 -46 99 2 5 -9 11 -26 15 -44 8 -59 8 -59 -3z"/>
<path d="M3233 6153 l-53 -4 0 -35 c0 -21 4 -33 10 -29 6 3 10 13 10 20 0 14
29 35 48 35 6 0 13 -46 17 -101 6 -81 5 -103 -6 -110 -9 -5 8 -9 46 -9 43 1
55 3 43 10 -10 7 -18 29 -22 67 -16 156 -9 177 39 129 l25 -25 0 29 c0 30 -1
30 -52 28 -29 -1 -77 -3 -105 -5z"/>
<path d="M3799 6141 c11 -7 11 -24 1 -102 -7 -55 -18 -99 -26 -105 -12 -10
-10 -13 8 -18 13 -3 36 -6 52 -6 21 0 26 3 19 13 -6 6 -8 29 -6 50 5 36 6 37
49 37 50 0 84 26 84 63 0 34 -29 55 -90 67 -66 13 -110 13 -91 1z m109 -23
c28 -28 4 -98 -34 -98 -10 0 -14 12 -14 39 0 66 18 89 48 59z"/>
<path d="M3062 6133 c-32 -4 -32 -5 -13 -21 13 -12 22 -41 30 -107 11 -82 11
-90 -5 -102 -15 -11 -11 -12 31 -7 53 7 96 23 63 24 -19 0 -22 9 -38 120 -10
67 -9 76 6 87 16 12 14 13 -12 11 -16 0 -44 -3 -62 -5z"/>
<path d="M2826 6087 c-42 -10 -47 -14 -34 -25 9 -7 24 -51 34 -98 14 -71 15
-90 5 -106 -11 -18 -11 -20 4 -14 9 3 35 9 57 13 36 5 39 8 24 19 -10 7 -20
31 -23 56 l-5 43 50 -49 c46 -44 53 -47 83 -41 l34 8 -53 46 c-53 47 -53 47
-33 66 25 22 27 57 5 79 -18 19 -76 20 -148 3z m88 -13 c23 -23 20 -71 -5 -84
-26 -14 -29 -12 -40 41 -8 32 -7 44 3 50 18 12 25 11 42 -7z"/>
<path d="M4049 6085 c-31 -17 -59 -71 -59 -113 0 -77 93 -139 167 -111 96 37
111 179 23 224 -36 19 -97 19 -131 0z m113 -12 c26 -23 24 -97 -4 -153 -18
-36 -29 -46 -53 -48 -38 -5 -55 19 -55 75 0 71 39 143 77 143 9 0 25 -7 35
-17z"/>
<path d="M2691 6053 c-23 -5 -23 -5 -2 -19 24 -17 65 -146 57 -179 -7 -27 -54
-47 -78 -34 -25 14 -73 168 -60 189 9 16 7 16 -44 1 -30 -9 -48 -17 -40 -19 9
-2 27 -39 44 -90 33 -99 54 -119 113 -108 48 9 79 39 79 78 0 17 -9 62 -21
101 -17 57 -18 71 -7 78 14 10 3 10 -41 2z"/>
<path d="M4309 6036 c8 -10 4 -35 -20 -104 -25 -72 -37 -92 -53 -94 -12 -2 19
-17 77 -37 54 -18 99 -31 101 -30 17 23 36 55 36 62 0 5 -12 -1 -26 -12 -30
-24 -86 -28 -103 -8 -16 20 45 186 73 196 16 7 11 11 -29 24 -59 21 -71 21
-56 3z"/>
<path d="M2460 5972 c0 -5 -19 -12 -41 -16 -61 -10 -109 -61 -109 -115 0 -79
47 -131 117 -131 61 0 133 56 120 93 -2 7 -11 -2 -20 -20 -29 -56 -79 -69
-114 -30 -48 52 -70 146 -41 175 17 17 70 15 94 -3 29 -22 34 -18 22 15 -10
30 -28 50 -28 32z"/>
<path d="M4539 5957 c12 -15 9 -29 -24 -107 -30 -72 -42 -90 -59 -91 -14 0 -5
-8 29 -24 59 -28 72 -30 56 -11 -17 20 53 184 82 195 17 6 14 10 -24 25 -79
33 -76 32 -60 13z"/>
<path d="M2135 5823 c-78 -43 -119 -71 -83 -58 18 7 43 -26 92 -123 23 -45 25
-56 14 -69 -7 -9 25 5 72 30 47 25 89 52 93 59 5 7 3 26 -4 43 l-13 30 -4 -32
c-3 -33 -45 -83 -68 -83 -8 0 -23 19 -35 41 -17 34 -18 43 -7 50 7 5 22 2 36
-7 13 -9 25 -14 26 -12 1 2 -10 26 -26 53 -24 43 -28 47 -28 24 0 -24 -25 -58
-34 -48 -8 9 -36 69 -36 77 0 11 45 32 69 32 10 0 24 -7 31 -15 21 -25 23 -10
3 22 l-18 30 -80 -44z"/>
<path d="M4680 5857 c-38 -19 -70 -74 -70 -119 0 -32 7 -47 33 -73 40 -40 77
-51 120 -37 31 10 30 10 -19 11 -80 2 -105 48 -68 127 50 106 130 111 152 8
l8 -39 18 33 c10 19 16 35 14 35 -5 3 -40 25 -73 47 -34 23 -79 25 -115 7z"/>
<path d="M4916 5766 c8 -22 -93 -174 -118 -178 -13 -2 8 -21 65 -60 l84 -57
29 31 c23 25 25 29 9 23 -42 -16 -63 -16 -94 -1 -17 9 -31 20 -31 24 0 4 12
24 26 45 21 32 28 36 41 26 10 -9 13 -23 9 -43 l-6 -31 19 24 c10 14 26 37 36
53 l16 28 -25 -11 c-13 -7 -32 -9 -41 -6 -13 6 -12 12 11 47 15 22 30 40 34
40 4 0 19 -12 35 -26 22 -21 26 -31 21 -57 l-6 -32 20 25 c11 14 20 30 20 35
0 9 -52 48 -133 100 -25 16 -27 16 -21 1z"/>
<path d="M1955 5716 c-54 -29 -71 -65 -50 -106 17 -32 20 -33 109 -34 70 -1
93 -21 62 -55 -23 -25 -63 -27 -94 -5 -27 19 -28 11 -2 -26 20 -28 21 -28 53
-13 77 38 101 99 56 144 -19 19 -28 20 -90 14 -60 -6 -70 -5 -76 10 -15 40 42
69 87 45 30 -16 33 -9 7 22 l-22 26 -40 -22z"/>
<path d="M3246 5574 c-99 -12 -149 -24 -99 -24 27 0 30 -7 44 -149 12 -115 12
-122 -6 -135 -16 -12 -12 -13 36 -8 63 5 68 8 47 25 -10 7 -19 36 -23 75 l-7
62 56 0 c42 0 57 -4 65 -17 5 -10 11 -16 13 -13 8 10 -4 100 -13 100 -5 0 -9
-6 -9 -14 0 -20 -16 -29 -67 -36 -39 -6 -44 -5 -49 15 -3 12 -4 39 -2 61 l3
39 66 3 c60 3 67 1 77 -20 10 -21 11 -20 11 15 1 29 -3 37 -16 36 -10 -1 -67
-7 -127 -15z"/>
<path d="M3764 5551 c-3 -14 -7 -32 -10 -38 -6 -21 7 -15 28 12 20 25 52 32
77 16 12 -8 12 -25 -3 -118 -25 -152 -25 -153 -50 -153 -38 -1 4 -17 64 -25
55 -7 55 -7 33 11 l-23 19 22 128 c14 81 27 127 34 127 30 0 65 -22 74 -46 13
-33 17 -29 22 16 l3 35 -133 21 -132 21 -6 -26z"/>
<path d="M2850 5497 c-78 -41 -102 -130 -57 -217 27 -55 71 -82 132 -82 97 0
173 79 160 166 -9 62 -43 113 -90 136 -54 26 -92 25 -145 -3z m125 -28 c40
-36 71 -120 60 -169 -9 -42 -40 -77 -74 -85 -68 -15 -129 57 -138 166 -5 54
-4 60 25 88 41 41 80 41 127 0z"/>
<path d="M4122 5499 c17 -13 16 -21 -18 -129 -40 -127 -45 -137 -77 -142 -15
-2 -2 -10 42 -26 36 -12 67 -20 69 -17 3 2 -3 7 -12 11 -9 3 -16 14 -16 23 0
25 30 111 39 111 15 0 116 -32 124 -39 4 -4 -1 -32 -11 -62 -16 -46 -23 -55
-48 -60 -28 -5 -28 -6 15 -18 24 -7 55 -17 69 -22 26 -10 26 -10 8 10 -17 19
-17 23 19 133 42 126 48 138 79 139 17 0 16 3 -9 14 -29 12 -113 31 -87 19 16
-8 15 -31 -4 -88 -9 -26 -21 -45 -28 -43 -6 2 -36 12 -66 22 -30 10 -56 19
-58 20 -1 1 7 28 18 59 17 44 26 56 43 57 18 0 16 3 -12 15 -18 8 -47 18 -65
21 -28 5 -29 4 -14 -8z"/>
<path d="M4521 5352 c10 -16 2 -36 -46 -123 -70 -127 -74 -132 -98 -125 -34 9
-6 -9 105 -66 l107 -56 25 27 c34 36 33 43 -6 26 -36 -14 -82 -5 -133 29 l-26
17 32 59 31 58 46 -27 c29 -17 49 -36 52 -52 6 -23 8 -22 28 18 27 52 27 56 2
41 -16 -10 -27 -9 -65 10 -25 12 -45 26 -45 31 0 4 12 29 26 55 l26 46 41 -21
c59 -30 77 -48 78 -78 0 -26 1 -25 16 6 9 18 15 35 12 37 -6 6 -208 106 -214
106 -3 0 0 -8 6 -18z"/>
<path d="M2260 5245 c-58 -35 -109 -66 -114 -68 -10 -3 23 -67 34 -67 4 0 5
13 2 29 -3 22 2 33 23 50 15 11 31 21 35 21 4 0 38 -48 74 -107 46 -74 66
-115 63 -131 l-4 -22 46 26 c62 36 69 44 37 41 -25 -2 -35 9 -98 108 l-70 109
22 18 c28 22 58 23 82 1 26 -23 22 1 -4 31 l-23 25 -105 -64z"/>
<path d="M2067 5123 c-42 -33 -46 -42 -14 -36 19 4 36 -9 85 -63 34 -38 62
-72 62 -75 0 -3 -63 7 -141 22 l-140 29 -30 -22 c-36 -27 -36 -33 0 -33 25 0
42 -14 106 -90 65 -77 75 -94 71 -118 l-6 -28 40 32 c22 18 40 37 40 42 0 5
-7 3 -16 -4 -15 -12 -26 -4 -95 71 -43 47 -73 86 -66 88 7 1 80 -11 162 -27
83 -16 152 -27 154 -26 1 2 -38 52 -89 112 -69 82 -90 113 -87 130 2 13 3 23
2 23 -1 0 -18 -12 -38 -27z"/>
<path d="M5044 4855 c-73 -29 -144 -55 -159 -57 l-27 -3 31 -29 c24 -23 29
-25 25 -9 -4 14 4 23 32 36 l37 18 44 -43 c47 -46 49 -54 31 -93 -9 -21 -17
-26 -36 -22 -21 4 -20 1 14 -34 34 -35 64 -53 49 -30 -3 5 15 63 41 128 73
187 75 193 61 192 -7 0 -71 -25 -143 -54z m71 -42 c-14 -31 -28 -59 -30 -62
-3 -2 -21 11 -40 29 -19 18 -32 36 -29 39 6 6 105 49 116 50 4 1 -4 -25 -17
-56z"/>
<path d="M1711 4801 c-44 -49 -81 -91 -81 -94 0 -2 10 -2 23 0 33 6 220 -160
212 -188 -4 -10 -4 -19 -2 -19 8 0 167 181 167 190 0 5 -11 22 -24 37 l-25 28
6 -40 c4 -35 1 -46 -28 -82 -19 -23 -39 -44 -45 -47 -13 -5 -103 64 -104 80 0
5 15 25 34 43 28 28 40 32 63 27 26 -6 25 -4 -17 33 -48 42 -59 46 -39 13 11
-18 9 -25 -22 -60 -19 -22 -36 -41 -39 -41 -3 -1 -25 16 -48 37 l-44 37 43 48
c37 43 46 48 73 43 l30 -6 -24 25 c-13 14 -24 25 -25 25 -1 0 -39 -40 -84 -89z"/>
<path d="M5339 4736 c18 -21 6 -37 -85 -106 -128 -98 -122 -94 -139 -80 -32
27 -22 3 20 -45 36 -42 42 -46 38 -25 -4 22 9 35 97 103 103 79 117 86 138 65
7 -7 12 -8 12 -4 0 12 -74 105 -84 106 -5 0 -3 -6 3 -14z"/>
<path d="M1556 4613 c-29 -42 -32 -33 57 -158 36 -49 64 -91 63 -92 -2 -2 -56
4 -122 12 -65 8 -123 15 -129 15 -5 0 -20 -16 -32 -35 -25 -38 -30 -56 -11
-37 20 20 36 14 150 -54 99 -60 109 -69 104 -90 -9 -34 -3 -30 28 16 31 47 32
54 9 42 -10 -5 -25 -7 -33 -4 -21 7 -182 104 -178 107 2 1 55 -4 118 -12 175
-21 171 -27 80 102 -43 61 -77 112 -75 113 2 2 47 -22 100 -54 88 -52 96 -60
92 -83 l-5 -26 22 27 c12 15 30 42 40 59 18 30 18 30 -2 18 -17 -11 -34 -3
-137 56 -102 61 -116 72 -112 92 6 31 2 29 -27 -14z"/>
<path d="M2275 4454 c-93 -85 -185 -170 -203 -188 l-34 -33 46 -126 c104 -286
149 -501 150 -707 0 -134 -1 -136 -66 -390 -37 -140 -72 -293 -79 -339 -31
-220 35 -440 180 -594 111 -117 193 -167 396 -238 305 -106 622 -273 792 -416
28 -23 55 -43 60 -43 6 0 39 23 74 52 189 152 428 277 783 409 88 33 180 71
205 86 217 126 349 329 376 579 10 88 -9 196 -82 488 -53 212 -66 281 -70 366
-9 187 45 460 147 736 l51 139 -48 44 c-26 24 -118 108 -204 187 l-157 144
-1073 0 -1074 0 -170 -156z m2475 -65 c131 -119 175 -166 174 -182 -1 -12 -20
-76 -44 -142 -89 -255 -132 -474 -132 -670 0 -128 1 -135 72 -415 104 -415
105 -519 5 -718 -91 -180 -221 -282 -468 -368 -283 -99 -565 -242 -758 -385
l-80 -60 -82 60 c-216 157 -451 276 -752 381 -202 71 -307 137 -401 251 -105
128 -149 269 -141 454 4 108 12 146 73 380 l69 260 0 170 c0 138 -4 191 -23
283 -27 134 -80 321 -126 443 l-34 89 181 165 180 165 1056 0 1056 0 175 -161z"/>
<path d="M2377 4393 c-67 -64 -139 -133 -160 -153 l-39 -37 42 -123 c49 -145
83 -286 104 -430 43 -294 34 -380 -84 -810 -33 -120 -50 -299 -36 -375 l7 -37
52 7 c92 12 132 62 87 110 l-22 23 26 17 c38 25 212 18 232 -9 11 -16 10 -23
-9 -48 -20 -27 -20 -31 -6 -56 19 -34 67 -51 149 -51 118 -1 189 34 175 86 -3
14 -13 32 -20 40 -21 20 -20 22 20 39 52 22 177 19 206 -5 23 -19 23 -20 6
-39 -28 -31 -19 -72 23 -100 31 -21 44 -23 122 -20 69 2 92 7 115 24 35 26 42
68 14 86 -12 7 -21 21 -21 30 0 27 64 40 179 36 89 -3 105 -6 117 -23 13 -18
13 -22 -7 -38 -28 -22 -28 -66 0 -88 46 -37 210 -39 259 -2 33 25 40 67 15 95
-17 19 -17 20 7 40 22 18 36 20 113 16 64 -3 92 -9 104 -21 16 -15 15 -18 -1
-36 -25 -27 -17 -70 17 -95 25 -18 42 -21 136 -21 128 0 161 14 161 69 0 18
-7 39 -15 46 -43 35 9 60 127 60 110 0 145 -22 98 -63 -43 -36 -10 -82 71 -99
92 -19 92 -19 86 135 -5 137 -3 127 -107 522 -65 246 -49 531 50 875 16 58 41
134 54 168 l24 62 -161 155 -162 155 -1013 0 -1014 0 -121 -117z m1110 59
c-27 -29 -57 -105 -57 -143 0 -35 -2 -37 -42 -44 -85 -14 -93 -12 -96 18 -2
15 -9 27 -17 27 -31 0 -35 -100 -5 -130 20 -20 35 -25 110 -35 l45 -6 -1 -127
c-2 -210 3 -204 -113 -112 -80 63 -90 74 -75 84 14 10 0 24 -100 100 -64 49
-116 91 -116 94 0 3 7 10 15 16 12 9 -9 26 -108 88 -136 85 -157 96 -157 79 0
-15 170 -251 180 -251 5 0 10 6 13 13 3 7 22 -5 51 -33 49 -47 55 -60 31 -60
-8 0 -15 -4 -15 -8 0 -5 56 -59 125 -121 69 -62 125 -115 125 -117 0 -2 -11 1
-24 6 -13 5 -68 11 -122 15 -112 7 -185 30 -158 50 13 9 -5 21 -112 70 -71 32
-133 61 -138 66 -5 5 -4 14 3 23 10 12 -12 22 -139 64 -83 28 -152 46 -156 41
-3 -5 7 -20 23 -33 15 -13 68 -58 117 -99 73 -62 92 -73 100 -61 9 12 21 8 69
-24 54 -37 56 -39 35 -49 -22 -10 -22 -10 12 -29 l35 -19 -35 -3 c-19 -2 -77
2 -129 8 -82 10 -95 10 -109 -4 -14 -14 -14 -18 7 -40 12 -13 41 -32 64 -42
23 -10 50 -28 59 -40 10 -12 31 -24 49 -28 17 -3 39 -16 49 -28 15 -18 29 -23
74 -25 32 0 64 -8 78 -17 12 -9 28 -16 36 -16 15 0 77 -58 84 -80 3 -10 -17
-32 -56 -62 -54 -42 -61 -45 -64 -28 -2 11 -6 20 -10 20 -4 0 -59 -41 -122
-91 -106 -83 -115 -89 -124 -70 -8 18 -20 10 -128 -91 -65 -62 -115 -115 -110
-120 5 -5 71 16 148 46 112 44 139 59 136 73 -1 13 15 27 57 51 56 30 60 31
63 12 3 -16 27 -4 171 90 137 89 172 107 190 101 12 -4 40 -9 61 -9 21 -1 40
-3 42 -4 3 -4 -126 -162 -136 -166 -5 -2 -10 6 -12 17 -2 15 -26 -9 -100 -101
-72 -88 -99 -116 -104 -104 -3 9 -10 16 -14 16 -6 0 -122 -172 -173 -256 -21
-35 21 -16 124 57 63 44 121 84 129 89 11 6 12 11 2 23 -10 12 -4 22 33 56 49
45 62 50 67 24 2 -11 51 35 151 143 82 87 151 159 154 159 3 0 5 -54 5 -120
-1 -96 3 -128 18 -161 l18 -42 -24 -6 c-13 -4 -52 -9 -86 -13 -71 -7 -112 -24
-128 -52 -13 -25 -13 -77 0 -101 15 -27 41 -14 38 19 -3 23 0 26 27 23 17 -2
58 -4 92 -5 l62 -2 6 -35 c4 -19 16 -52 26 -73 14 -25 18 -48 14 -67 -8 -35
10 -48 35 -25 28 26 62 114 58 150 -4 31 -2 33 37 40 83 14 100 12 98 -13 -3
-26 25 -42 38 -21 17 27 10 98 -11 119 -21 21 -37 26 -120 35 l-55 6 1 57 c0
31 4 71 8 88 5 20 2 44 -7 66 -12 29 -12 38 -1 59 7 13 13 34 14 47 0 12 3 22
8 21 4 0 70 -70 147 -154 76 -84 143 -151 147 -149 4 3 8 12 8 20 0 10 20 -3
55 -32 43 -37 52 -50 43 -61 -14 -17 -23 -8 118 -108 66 -46 123 -80 127 -75
5 4 -30 67 -78 140 -65 100 -89 130 -98 121 -6 -6 -14 -11 -17 -11 -4 0 -46
50 -94 110 -48 61 -91 110 -96 110 -5 0 -10 -8 -12 -17 -2 -13 -23 7 -72 67
l-68 84 28 8 c15 4 31 5 35 3 4 -3 20 -1 34 5 25 10 42 1 196 -100 93 -60 172
-110 174 -110 3 0 5 9 5 20 0 19 1 19 38 -2 79 -45 84 -49 73 -62 -8 -10 22
-26 131 -69 78 -31 146 -53 150 -49 9 9 -203 222 -221 222 -6 0 -11 -7 -11
-15 0 -8 -3 -15 -7 -15 -5 0 -59 41 -120 90 -62 50 -115 90 -118 90 -3 0 -5
-9 -5 -20 0 -11 -2 -20 -5 -20 -7 0 -135 101 -135 106 0 11 80 84 92 84 7 0
24 8 38 17 15 10 39 16 61 14 38 -2 99 22 99 39 0 5 16 12 35 16 20 3 43 16
53 28 9 12 33 28 52 35 64 25 101 77 70 96 -5 3 -54 1 -108 -5 -54 -7 -112
-10 -128 -8 l-29 3 33 18 c31 17 32 19 16 32 -16 12 -13 16 41 50 36 24 60 34
63 27 2 -7 8 -12 13 -12 5 0 59 41 119 92 111 92 136 126 83 108 -16 -5 -86
-28 -156 -50 -121 -39 -128 -43 -113 -59 15 -16 7 -22 -125 -81 -117 -53 -138
-66 -125 -75 27 -20 -47 -42 -174 -52 -63 -5 -115 -9 -116 -9 -1 1 55 53 124
116 108 99 123 115 103 118 -22 4 -20 7 25 53 37 38 51 46 61 37 7 -6 15 -9
16 -7 40 52 177 248 177 253 0 15 -30 1 -156 -76 -125 -78 -132 -84 -115 -98
18 -14 12 -20 -99 -105 -102 -78 -116 -91 -100 -100 17 -9 5 -21 -90 -98 -60
-48 -113 -87 -118 -87 -5 0 -7 51 -5 113 2 65 -2 130 -8 155 -7 23 -9 45 -7
48 5 4 75 17 167 30 18 3 45 17 58 30 21 21 25 32 20 65 -6 43 -24 72 -39 63
-5 -3 -7 -17 -4 -29 9 -34 -9 -39 -71 -24 -41 9 -65 10 -94 2 l-39 -10 0 32
c0 18 -7 51 -15 74 -8 23 -13 60 -12 81 l2 40 500 0 500 0 141 -141 140 -140
-32 -94 c-77 -221 -125 -481 -126 -690 -1 -152 6 -199 72 -440 62 -229 82
-335 78 -427 l-3 -73 -35 3 c-43 5 -70 18 -70 36 0 8 7 16 15 20 20 7 19 60
-1 80 -23 24 -53 28 -162 24 -81 -2 -104 -7 -121 -22 -24 -22 -28 -68 -6 -86
44 -36 -3 -64 -110 -65 -115 0 -173 29 -129 65 9 8 14 25 12 44 -5 50 -51 68
-169 64 -79 -2 -101 -7 -118 -22 -25 -23 -27 -63 -5 -87 20 -22 11 -37 -32
-55 -67 -28 -204 -8 -204 30 0 9 4 16 10 16 16 0 32 41 26 66 -12 44 -54 56
-196 52 -109 -3 -131 -6 -149 -22 -27 -24 -27 -63 -1 -91 20 -22 20 -22 0 -40
-28 -25 -143 -33 -193 -12 -40 17 -45 31 -22 61 21 28 19 60 -6 82 -16 15 -40
20 -105 23 -47 1 -101 0 -120 -4 -63 -11 -94 -64 -58 -99 27 -28 13 -50 -41
-64 -55 -14 -170 -8 -192 10 -15 12 -18 48 -4 48 14 0 23 37 16 61 -11 34 -64
49 -175 49 -94 0 -103 -2 -125 -25 -31 -30 -31 -52 -3 -82 28 -30 14 -46 -44
-47 l-43 -1 -3 80 c-3 93 12 178 73 397 62 222 79 343 72 498 -10 201 -52 415
-124 635 l-36 110 144 137 144 138 499 0 c477 0 498 -1 483 -18z m32 -125 c12
-32 15 -101 4 -95 -56 27 -63 34 -69 63 -4 22 1 49 17 86 l23 54 7 -40 c4 -22
12 -53 18 -68z m-596 -70 c65 -41 76 -52 65 -64 -7 -9 -8 -17 -2 -21 6 -4 57
-43 114 -87 68 -53 98 -81 87 -83 -9 -2 -17 -7 -17 -11 0 -5 54 -51 120 -102
67 -53 123 -104 126 -116 3 -11 0 -31 -6 -43 -12 -22 -12 -22 -53 17 -36 34
-273 249 -287 260 -2 2 6 6 19 10 21 5 18 11 -45 74 -47 47 -74 67 -85 64 -12
-4 -28 10 -55 47 -21 29 -50 69 -64 87 -28 38 -28 39 83 -32z m1206 -31 c-47
-64 -66 -83 -75 -75 -10 8 -29 -7 -77 -58 -53 -55 -62 -69 -50 -78 12 -9 -20
-42 -162 -170 -97 -88 -180 -161 -186 -163 -5 -2 -9 16 -9 40 l0 43 123 97
c67 54 131 104 142 112 20 15 20 15 -2 23 -20 7 -10 17 93 96 102 79 113 90
98 101 -15 11 -7 19 72 68 49 31 90 54 92 53 2 -2 -25 -41 -59 -89z m-659 9
c35 -18 60 -52 60 -82 0 -21 -1 -21 -34 -8 -18 8 -64 17 -102 21 -88 9 -123
26 -124 61 0 8 11 10 33 7 17 -3 43 -1 57 5 36 14 77 13 110 -4z m248 -12 c18
-3 39 0 47 7 22 18 20 -12 -2 -39 -14 -17 -35 -23 -98 -31 -44 -5 -88 -12 -97
-15 -14 -5 -18 -2 -18 13 0 11 -3 27 -6 36 -4 11 4 20 27 31 33 15 45 14 147
-2z m-227 -109 c32 -16 59 -66 59 -110 l0 -26 -30 25 c-16 14 -39 28 -50 32
-28 9 -41 95 -14 95 3 0 19 -7 35 -16z m-883 -65 c78 -26 91 -33 81 -45 -7 -8
-10 -16 -8 -18 2 -2 62 -30 132 -62 115 -52 126 -59 106 -69 -18 -10 -19 -13
-5 -18 22 -9 9 -37 -18 -37 -11 0 -36 10 -55 21 -31 19 -33 22 -17 31 15 9 6
18 -64 65 -62 41 -85 52 -95 43 -10 -8 -31 5 -89 55 -43 36 -73 65 -69 65 4 0
50 -14 101 -31z m1902 27 c0 -2 -34 -32 -76 -66 -57 -47 -78 -60 -84 -50 -6
10 -29 1 -94 -41 -76 -47 -84 -55 -69 -66 9 -7 15 -15 12 -17 -14 -12 -71 -36
-88 -36 -28 0 -37 21 -17 36 16 11 16 13 -1 22 -16 9 -12 13 27 30 79 35 204
93 208 97 3 3 0 11 -7 19 -10 12 3 19 76 44 84 29 113 36 113 28z m-985 -109
c17 -27 32 -117 19 -117 -5 0 -30 20 -56 44 -39 36 -48 50 -48 78 0 19 3 37 6
41 10 10 62 -21 79 -46z m-19 -119 c12 -12 27 -33 33 -45 13 -26 15 -133 2
-133 -5 0 -22 15 -37 34 -75 87 -81 101 -64 151 13 39 26 37 66 -7z m-515 -43
c18 -10 70 -18 132 -22 140 -8 149 -12 141 -62 -6 -37 -4 -41 27 -60 19 -12
48 -21 65 -21 29 0 33 -4 45 -47 7 -27 15 -54 17 -60 2 -8 -6 -13 -18 -13 -17
0 -20 4 -15 20 4 11 2 20 -4 20 -6 0 -15 -9 -21 -20 -6 -11 -20 -20 -30 -20
-23 0 -24 4 -10 30 6 12 7 21 0 25 -5 3 -16 -8 -25 -25 -16 -30 -38 -39 -50
-19 -4 5 1 19 11 30 22 24 10 38 -14 16 -20 -18 -62 -23 -62 -8 0 5 11 16 25
25 14 9 23 21 20 27 -4 5 -17 1 -32 -11 -27 -21 -53 -26 -53 -11 0 5 12 18 27
29 33 24 24 41 -9 20 -34 -22 -57 -28 -63 -18 -3 5 10 16 30 24 19 8 35 20 35
25 0 14 -1 14 -44 -4 -36 -15 -56 -13 -56 5 0 5 14 10 32 12 17 2 33 8 35 14
3 8 -12 10 -45 6 -33 -3 -51 0 -59 10 -10 12 -2 13 55 10 37 -2 72 -8 78 -13
16 -13 26 2 13 18 -6 7 -31 13 -54 13 -97 0 -187 32 -170 60 8 13 11 13 46 -5z
m1069 0 c0 -26 -45 -45 -126 -51 -78 -7 -109 -18 -98 -36 4 -5 10 -5 17 0 7 6
42 12 79 14 57 3 65 2 55 -10 -8 -10 -26 -13 -59 -10 -33 4 -48 2 -45 -6 2 -6
18 -12 35 -14 18 -2 32 -7 32 -12 0 -18 -20 -20 -56 -5 -42 17 -54 19 -54 6 0
-5 19 -17 43 -27 34 -15 38 -18 20 -22 -12 -2 -33 4 -48 14 -35 23 -47 7 -12
-18 15 -11 27 -24 27 -29 0 -15 -26 -10 -53 11 -15 12 -28 16 -32 11 -3 -6 6
-18 20 -27 14 -9 25 -20 25 -25 0 -15 -42 -10 -62 8 -24 22 -36 8 -14 -16 10
-11 15 -25 11 -30 -12 -20 -34 -11 -50 19 -9 17 -20 28 -25 25 -7 -4 -6 -13 0
-25 14 -26 13 -30 -10 -30 -10 0 -24 9 -30 20 -14 27 -33 26 -25 -1 5 -15 3
-20 -6 -17 -10 3 -30 63 -39 116 0 1 23 2 50 2 87 0 136 41 110 91 -8 15 -9
24 -1 32 6 6 65 14 132 19 70 5 133 15 148 23 34 18 41 18 41 0z m-1321 -25
c58 -6 128 -7 155 -4 77 10 45 -13 -45 -32 -99 -21 -209 -16 -245 12 -42 31
-43 46 -3 40 19 -3 81 -11 138 -16z m1699 8 c-18 -52 -143 -72 -277 -44 -97
20 -119 40 -36 32 33 -3 112 0 175 8 63 7 121 14 128 15 8 0 12 -4 10 -11z
m-1093 -59 c25 -23 45 -48 45 -55 0 -19 -44 -18 -81 2 -25 12 -30 20 -24 37 4
12 7 30 8 40 1 9 3 17 4 17 2 0 24 -19 48 -41z m378 -35 c-6 -18 -51 -34 -91
-34 l-37 1 55 48 55 49 11 -26 c6 -15 9 -32 7 -38z m-763 41 c-7 -8 -49 -26
-93 -40 -84 -27 -145 -27 -166 -1 -9 10 6 14 72 19 45 3 102 13 127 21 63 20
76 20 60 1z m1190 -10 c36 -8 89 -15 119 -15 45 0 52 -2 42 -14 -22 -26 -78
-28 -155 -6 -39 12 -83 31 -96 42 l-25 20 25 -7 c14 -3 54 -12 90 -20z m-571
-178 c8 -46 8 -73 1 -93 l-11 -28 -37 40 c-20 22 -50 49 -65 59 -49 35 -71
130 -42 185 l15 29 64 -64 c60 -59 64 -68 75 -128z m-585 145 c-6 -9 -35 -30
-65 -45 -40 -21 -63 -27 -88 -23 -61 9 -56 23 16 45 37 11 82 29 98 40 34 21
57 12 39 -17z m1169 -27 c62 -18 66 -31 12 -41 -27 -5 -48 0 -89 20 -61 30
-81 49 -73 70 5 13 13 11 49 -9 24 -13 69 -31 101 -40z m-1133 15 c0 -5 -10
-15 -22 -21 -23 -12 -23 -12 -4 10 21 23 26 26 26 11z m1004 -39 c-6 -7 -54
29 -54 40 0 6 13 0 29 -13 15 -13 27 -25 25 -27z m-1004 -33 c-22 -18 -70 -24
-83 -11 -4 4 16 18 45 32 43 21 54 23 57 11 2 -7 -7 -22 -19 -32z m1003 12
c41 -13 41 -30 -1 -30 -36 0 -72 26 -72 52 0 19 2 20 18 6 9 -9 34 -21 55 -28z
m-933 -34 c0 -28 -27 -49 -53 -42 -34 8 -34 21 1 51 27 23 52 19 52 -9z m889
-22 c1 -12 -21 -24 -45 -24 -7 0 -20 13 -29 30 -14 26 -14 30 2 39 13 7 24 3
45 -12 15 -12 27 -27 27 -33z m-839 -18 c0 -30 -27 -66 -51 -66 -31 0 -33 25
-5 53 14 15 26 31 26 36 0 6 7 8 15 5 8 -4 15 -16 15 -28z m780 -28 c6 -2 8
-11 4 -21 -10 -28 -45 -16 -68 22 -19 33 -19 34 -1 47 16 12 20 10 36 -15 9
-16 22 -30 29 -33z m-720 -11 c0 -38 -15 -57 -45 -57 -33 0 -36 10 -15 38 11
13 20 31 20 38 0 8 9 14 20 14 16 0 20 -7 20 -33z m642 -6 c28 -43 27 -51 -8
-51 -26 0 -44 26 -44 64 0 38 23 32 52 -13z m-344 -44 c60 -60 74 -105 50
-152 l-15 -28 -40 37 c-61 55 -88 126 -67 180 9 24 15 21 72 -37z m-238 29 c0
-29 -13 -46 -35 -46 -22 0 -22 2 -12 30 12 31 47 43 47 16z m55 -22 c0 -23 -5
-30 -23 -32 -20 -3 -22 -1 -16 25 9 38 14 45 27 40 7 -2 12 -17 12 -33z m67 6
c-9 -58 -44 -67 -40 -10 3 34 6 40 23 38 15 -2 19 -9 17 -28z m268 -10 c0 -41
-9 -50 -28 -27 -9 11 -16 41 -13 60 0 4 10 7 21 7 17 0 20 -7 20 -40z m60 21
c0 -11 3 -27 6 -36 5 -13 2 -16 -17 -13 -19 2 -25 10 -27 36 -3 27 0 32 17 32
14 0 21 -6 21 -19z m67 -11 c10 -28 10 -30 -12 -30 -22 0 -35 17 -35 46 0 27
35 15 47 -16z m-673 -25 c25 -19 28 -15 -124 -114 -91 -59 -126 -77 -128 -66
-2 8 -6 15 -9 15 -2 0 -40 -19 -84 -42 -59 -32 -78 -47 -75 -60 3 -13 -16 -24
-88 -52 -51 -20 -95 -36 -99 -36 -4 0 28 33 71 74 69 66 78 72 84 54 9 -22 7
-24 165 104 39 32 74 58 77 58 2 0 6 -9 8 -21 3 -19 11 -15 83 40 43 34 84 61
90 61 5 0 19 -7 29 -15z m911 -50 c80 -63 84 -64 87 -40 3 23 10 19 118 -67
86 -68 116 -87 118 -74 2 9 8 16 14 16 11 0 150 -131 144 -137 -1 -2 -43 12
-92 31 -62 24 -89 39 -89 51 0 10 -33 35 -85 65 -74 42 -86 45 -90 30 -4 -15
-24 -5 -125 61 -66 44 -127 84 -135 89 -13 8 -12 11 5 24 11 8 26 16 34 16 7
0 51 -29 96 -65z m-618 7 c8 -5 -34 -56 -122 -152 -74 -80 -139 -146 -144
-148 -5 -2 -11 4 -13 13 -2 11 -24 -3 -79 -52 -58 -51 -74 -71 -67 -81 6 -7 9
-14 7 -16 -2 -2 -42 -30 -89 -62 -75 -52 -83 -55 -66 -29 11 17 37 58 59 93
36 57 57 76 57 52 0 -25 23 -3 106 101 70 87 90 106 92 90 2 -12 6 -21 10 -20
4 0 44 47 90 104 62 77 90 105 110 108 15 2 29 5 32 5 3 1 10 -2 17 -6z m360
-105 c74 -91 88 -104 98 -90 10 13 24 1 95 -88 46 -57 85 -106 87 -108 1 -2 9
2 17 8 12 11 24 -1 72 -73 31 -48 55 -88 53 -90 -2 -2 -41 24 -87 56 -64 46
-81 63 -72 73 8 9 -8 28 -64 79 -63 56 -76 64 -84 50 -7 -13 -34 11 -145 131
-75 81 -135 151 -132 155 2 4 20 6 40 5 32 -2 43 -13 122 -108z m-262 -14 c47
-39 67 -78 58 -112 -8 -31 -31 -26 -74 18 -34 34 -39 45 -39 85 0 25 3 46 6
46 3 0 25 -17 49 -37z m-30 -113 c4 -6 24 -22 46 -36 33 -20 39 -30 39 -57 0
-43 -7 -49 -39 -33 -41 21 -59 48 -67 94 -6 40 5 58 21 32z m157 -177 c46 -4
77 -12 94 -25 32 -26 32 -47 -2 -40 -14 2 -51 -1 -82 -9 -52 -12 -56 -12 -66
6 -6 10 -28 38 -50 62 l-39 43 38 -16 c21 -8 69 -18 107 -21z m-178 -22 c-8
-48 -30 -59 -92 -46 -20 5 -56 9 -79 9 -48 1 -51 4 -25 36 14 17 34 23 97 31
44 5 85 11 90 13 15 5 16 2 9 -43z m106 -80 c11 -44 3 -93 -25 -141 l-14 -25
-1 23 c0 12 -9 40 -20 61 -25 49 -34 109 -25 158 l7 38 33 -37 c19 -20 39 -55
45 -77z"/>
<path d="M5470 4562 c0 -23 -42 -54 -167 -123 -54 -30 -65 -32 -83 -21 -20 12
-21 12 -6 -15 8 -15 24 -41 35 -57 19 -29 19 -29 23 -5 4 28 93 88 108 73 6
-6 -3 -41 -24 -96 l-34 -85 20 -32 c21 -33 34 -41 24 -16 -3 9 4 41 16 73 11
31 25 68 30 81 l9 24 22 -22 c46 -42 127 -10 127 51 0 30 -43 120 -80 168
l-20 25 0 -23z m55 -92 c20 -39 19 -63 -5 -85 -31 -28 -70 -22 -103 15 l-29
33 53 33 c30 19 57 34 61 34 4 0 14 -13 23 -30z"/>
<path d="M1305 4166 c-26 -61 -49 -116 -52 -122 -3 -10 65 -49 73 -41 2 2 -5
12 -16 22 -23 21 -26 53 -7 79 12 16 19 15 117 -24 134 -53 153 -65 146 -93
-3 -12 7 5 24 38 35 71 37 84 10 60 -19 -17 -23 -16 -137 30 -65 26 -122 51
-127 56 -17 16 28 64 65 69 l34 5 -42 16 -41 17 -47 -112z"/>
<path d="M1235 3926 c-20 -20 -32 -51 -72 -181 -5 -19 -5 -19 15 -2 19 18 24
17 148 -15 123 -31 129 -34 132 -60 4 -37 -16 -47 -186 -99 -78 -24 -141 -48
-139 -53 2 -6 59 -41 128 -77 68 -37 134 -76 147 -87 15 -14 22 -17 22 -8 0 7
3 29 6 47 6 32 6 33 -9 14 -15 -19 -16 -19 -52 -2 l-38 18 6 60 c3 33 7 62 9
64 2 2 23 7 46 11 37 6 42 4 42 -12 0 -16 2 -17 10 -4 5 8 10 31 10 50 0 19 9
64 20 100 24 80 25 87 2 67 -16 -15 -23 -15 -71 -2 -29 7 -56 17 -60 20 -10
11 24 30 104 61 70 27 74 30 83 67 9 36 9 37 -6 24 -10 -8 -48 -29 -86 -46
-72 -32 -85 -31 -86 12 0 53 -83 75 -125 33z m87 -43 c12 -11 18 -30 18 -60 0
-48 -1 -49 -75 -30 -43 11 -50 17 -53 39 -6 55 68 89 110 51z m1 -390 c-3 -27
-7 -49 -8 -51 -2 -2 -29 10 -61 26 -37 19 -53 32 -44 35 72 25 106 36 112 36
4 1 5 -20 1 -46z"/>
<path d="M5775 3928 c-8 -18 -32 -28 -120 -50 -130 -33 -144 -33 -161 -10 -9
12 -8 -3 4 -52 13 -52 18 -63 22 -45 6 23 22 31 112 52 25 7 27 4 38 -45 12
-47 11 -52 -6 -66 -17 -12 -14 -13 26 -7 49 8 78 25 42 25 -24 0 -37 20 -47
72 l-7 36 56 13 c31 7 58 10 61 7 3 -3 11 -30 17 -61 11 -51 10 -58 -8 -78
l-19 -22 30 7 c16 4 32 9 34 12 5 5 -49 216 -58 226 -4 4 -11 -2 -16 -14z"/>
<path d="M5667 3636 c-71 -26 -107 -76 -107 -148 0 -121 133 -187 250 -125
104 55 106 199 4 259 -42 25 -103 30 -147 14z m179 -79 c67 -78 -12 -167 -146
-167 -32 0 -58 7 -81 23 -29 19 -34 30 -37 66 -6 77 49 113 167 108 66 -2 76
-5 97 -30z"/>
<path d="M1145 3335 c-23 -22 -25 -31 -24 -122 1 -54 3 -91 6 -82 6 24 33 29
165 29 101 0 118 -2 127 -17 8 -14 10 -2 9 47 0 36 -3 55 -5 43 -4 -21 -10
-23 -69 -23 -38 0 -63 4 -59 9 3 6 1 29 -4 53 -18 81 -95 114 -146 63z m90
-37 c26 -12 40 -42 33 -75 -3 -15 -13 -18 -68 -18 -62 0 -65 1 -68 26 -4 31
32 79 58 79 11 0 31 -5 45 -12z"/>
<path d="M5581 3235 c0 -53 3 -64 9 -47 9 21 15 23 72 20 34 -2 63 -8 65 -14
2 -6 -32 -36 -76 -65 -78 -52 -80 -55 -80 -94 0 -32 2 -37 10 -22 6 10 40 39
77 66 l66 49 17 -38 c13 -29 25 -40 48 -45 35 -7 73 11 90 43 14 27 25 202 11
180 -12 -20 -93 -24 -223 -11 -57 5 -70 10 -77 27 -6 14 -9 -1 -9 -49z m294
-45 c12 -19 -6 -70 -30 -86 -34 -22 -74 -9 -91 32 -25 59 -21 64 50 64 36 0
68 -5 71 -10z"/>
<path d="M1360 3072 c0 -5 9 -12 19 -15 28 -7 51 -48 58 -105 l6 -50 -61 -7
c-34 -4 -66 -4 -71 0 -6 3 -11 28 -11 55 0 36 5 52 18 59 15 9 14 10 -8 10
-14 -1 -38 -5 -55 -9 -29 -7 -29 -8 -7 -15 22 -7 25 -15 36 -81 5 -31 4 -32
-51 -43 -66 -13 -68 -12 -77 62 -6 43 -4 53 15 73 l23 24 -35 -6 c-19 -4 -34
-7 -34 -8 -1 -1 8 -56 18 -124 17 -105 22 -119 31 -100 10 19 27 25 111 40
131 22 164 22 182 1 13 -17 14 -16 9 6 -3 14 -13 71 -22 128 -13 81 -20 103
-33 103 -9 0 -26 3 -38 6 -13 4 -23 2 -23 -4z"/>
<path d="M5639 2961 c-46 -15 -67 -30 -89 -66 -28 -45 -30 -117 -6 -163 24
-46 29 -36 10 18 -12 35 -13 53 -5 81 16 54 43 72 111 77 101 7 174 -43 172
-117 -1 -45 -19 -71 -65 -91 -40 -18 -41 -19 -14 -24 78 -17 75 -17 75 7 0 12
8 43 17 69 37 103 -24 195 -140 211 -22 3 -52 2 -66 -2z"/>
<path d="M1279 2757 c-41 -27 -69 -79 -69 -127 1 -40 58 -217 59 -183 1 28 10
32 148 73 112 33 113 33 135 14 15 -14 20 -15 16 -4 -3 8 -15 44 -27 80 -27
84 -53 126 -93 150 -47 28 -125 27 -169 -3z m178 -42 c28 -18 49 -51 58 -87 7
-26 5 -27 -97 -58 -56 -17 -115 -35 -130 -40 -35 -11 -48 9 -48 74 0 102 129
168 217 111z"/>
<path d="M5461 2585 c-23 -64 -41 -118 -39 -119 53 -40 76 -46 54 -14 -9 12
-16 35 -16 50 0 35 29 108 43 108 6 0 35 -8 64 -17 50 -16 54 -19 48 -43 -12
-48 -30 -74 -55 -81 l-25 -6 28 -12 c15 -6 40 -14 55 -17 27 -7 27 -7 8 14
-17 20 -17 23 -1 71 l16 49 59 -19 58 -20 -15 -47 c-19 -57 -39 -82 -67 -83
-17 0 -16 -3 9 -14 17 -7 33 -10 36 -7 7 8 79 205 79 215 0 4 -8 2 -18 -4 -15
-9 -33 -7 -88 11 -141 46 -175 62 -183 82 -6 16 -17 -6 -50 -97z"/>
<path d="M1502 2279 c-10 -16 -10 -24 -1 -35 9 -11 7 -14 -14 -14 -14 0 -29
-4 -32 -10 -8 -13 38 -13 51 0 8 8 15 6 24 -5 18 -22 33 -19 20 5 -6 11 -17
20 -25 20 -11 0 -13 8 -8 30 7 35 3 38 -15 9z"/>
<path d="M5442 2200 c-7 -11 -8 -21 -2 -25 5 -3 14 3 20 14 13 26 -2 35 -18
11z"/>
<path d="M5467 2163 c-7 -11 30 -50 38 -41 3 3 -3 16 -13 28 -11 14 -21 19
-25 13z"/>
<path d="M5395 2140 c-3 -6 5 -10 19 -10 14 0 28 5 31 10 3 6 -5 10 -19 10
-14 0 -28 -4 -31 -10z"/>
<path d="M1680 2063 c-8 -8 -33 -29 -54 -47 -33 -27 -38 -36 -32 -59 3 -15 18
-34 31 -43 24 -16 27 -15 81 17 31 19 60 33 66 31 5 -1 3 8 -3 20 -11 21 -13
21 -18 5 -6 -17 -85 -77 -102 -77 -14 0 -39 31 -39 50 0 18 53 64 90 78 17 6
18 10 8 23 -11 14 -15 14 -28 2z"/>
<path d="M5230 1975 c0 -18 82 -145 91 -140 5 4 3 13 -6 21 -17 18 -20 40 -5
49 6 3 10 12 10 18 0 7 -7 3 -15 -7 -16 -21 -17 -21 -35 12 -10 21 -10 23 7
18 10 -3 32 -8 48 -12 17 -4 35 -11 41 -16 7 -5 16 -3 23 6 14 16 10 18 -74
36 -27 6 -58 13 -67 16 -10 3 -18 2 -18 -1z"/>
<path d="M1767 1874 c-27 -24 -56 -44 -64 -44 -12 0 -13 -3 -4 -14 9 -11 19
-6 51 27 22 22 43 37 46 34 3 -3 1 -29 -5 -57 -20 -94 -18 -97 44 -45 35 30
59 44 67 39 9 -6 9 -3 -1 10 -13 16 -17 14 -53 -21 -42 -41 -44 -37 -28 48 6
29 7 56 3 60 -5 4 -30 -13 -56 -37z"/>
<path d="M5122 1849 c-39 -38 -42 -77 -9 -115 31 -35 77 -37 112 -4 14 13 25
31 24 39 0 10 -4 8 -9 -7 -10 -25 -45 -42 -71 -35 -20 6 -53 40 -62 64 -8 24
19 57 50 61 22 3 24 5 11 15 -12 10 -20 7 -46 -18z"/>
<path d="M1937 1743 c-11 -13 -36 -37 -58 -52 -38 -28 -38 -29 -19 -46 17 -15
20 -16 20 -3 0 8 22 36 49 61 35 33 46 49 38 56 -8 6 -18 1 -30 -16z"/>
<path d="M5009 1733 c-13 -14 -19 -23 -13 -20 16 9 108 -88 99 -105 -5 -7 4
-2 18 11 26 24 36 37 19 27 -13 -8 -105 90 -98 103 12 19 0 12 -25 -16z"/>
<path d="M2012 1687 c-8 -10 -5 -13 15 -12 41 0 37 -18 -15 -74 -44 -47 -47
-53 -30 -62 13 -7 18 -6 18 3 0 7 19 32 41 56 33 35 43 41 55 31 8 -7 12 -19
9 -27 -5 -13 -3 -13 11 -1 15 12 11 18 -32 56 -54 47 -57 48 -72 30z"/>
<path d="M4885 1628 l-26 -23 44 -50 c24 -27 46 -56 48 -63 3 -10 10 -7 24 10
11 13 16 20 11 15 -5 -4 -18 0 -28 10 -22 19 -24 48 -4 40 34 -13 84 -18 90
-9 3 6 -11 13 -35 17 -35 6 -40 10 -35 28 12 48 -44 63 -89 25z m69 -13 c2 -7
-1 -21 -9 -31 -13 -18 -14 -18 -34 0 -26 23 -27 43 -3 48 23 6 39 -1 46 -17z"/>
<path d="M2150 1591 c0 -6 -20 -35 -44 -64 l-44 -55 45 -32 c33 -24 48 -29 56
-21 8 8 6 11 -9 11 -12 0 -29 9 -39 20 -17 18 -17 21 -1 46 17 25 18 25 37 8
10 -9 19 -24 19 -32 0 -12 3 -12 14 3 13 18 11 21 -15 32 -34 14 -36 24 -9 48
20 18 21 18 45 -5 13 -13 22 -27 18 -33 -3 -6 -1 -7 5 -3 20 12 13 24 -33 56
-25 17 -45 26 -45 21z"/>
<path d="M4755 1534 c-51 -34 -64 -46 -46 -42 12 3 65 -56 90 -99 7 -14 14
-12 54 16 36 26 43 37 39 54 l-7 22 -3 -22 c-3 -22 -36 -53 -57 -53 -6 0 -16
9 -23 21 -16 25 -1 49 29 49 17 0 17 3 7 20 -12 19 -13 19 -19 1 -11 -27 -41
-35 -56 -15 -7 10 -13 21 -13 25 0 13 51 40 62 33 7 -4 8 -3 4 4 -10 17 -16
15 -61 -14z"/>
<path d="M2261 1439 c-19 -32 -41 -59 -49 -61 -9 -2 7 -15 36 -31 71 -39 120
-23 137 43 7 30 -21 73 -63 94 -27 14 -27 13 -61 -45z m83 15 c22 -22 20 -66
-4 -92 -22 -24 -50 -28 -80 -12 -18 10 -17 13 13 65 34 58 46 65 71 39z"/>
<path d="M4634 1452 c-8 -4 -10 -26 -6 -62 l6 -55 6 40 5 40 26 -51 c25 -50
27 -51 50 -38 15 8 18 13 9 14 -9 0 -30 27 -48 60 -19 33 -34 60 -35 60 -1 0
-7 -4 -13 -8z"/>
<path d="M4505 1380 c-3 -5 -2 -10 2 -10 11 0 74 -115 68 -124 -3 -3 0 -2 6 3
8 6 3 23 -16 55 -15 25 -24 46 -20 46 3 0 26 -13 50 -30 52 -35 55 -36 55 -10
0 11 -6 20 -12 20 -7 0 -33 14 -58 30 -48 32 -65 36 -75 20z"/>
<path d="M4410 1256 c0 -76 2 -85 17 -79 11 4 12 8 5 11 -22 7 -13 42 14 54
27 13 61 0 57 -20 -3 -12 35 -4 43 9 3 5 0 9 -7 9 -7 0 -39 23 -71 51 l-58 50
0 -85z m34 25 c17 -19 17 -20 -3 -31 -19 -10 -21 -8 -21 20 0 35 1 36 24 11z"/>
<path d="M2617 1303 c-13 -12 -7 -44 14 -73 12 -16 19 -36 16 -44 -10 -26 -45
-19 -61 12 -14 24 -15 25 -16 6 0 -28 56 -57 82 -43 28 15 27 48 -4 89 -22 31
-17 50 12 50 13 0 22 -9 26 -26 6 -23 8 -24 16 -10 7 13 5 21 -9 31 -19 15
-65 20 -76 8z"/>
<path d="M2737 1263 c-15 -14 -6 -22 13 -11 37 24 43 -3 17 -75 -23 -62 -23
-66 -5 -70 12 -3 18 0 18 11 0 28 33 122 44 122 5 0 18 -7 28 -17 15 -13 18
-14 18 -1 0 9 -21 21 -53 31 -59 19 -70 20 -80 10z"/>
<path d="M4100 1226 c0 -2 9 -6 20 -9 11 -3 20 -1 20 4 0 5 -9 9 -20 9 -11 0
-20 -2 -20 -4z"/>
<path d="M2888 1149 c-32 -38 -53 -69 -47 -69 6 0 19 10 28 21 15 19 22 20 47
12 21 -7 29 -16 29 -34 0 -13 7 -25 16 -27 14 -2 14 6 2 75 -7 43 -14 81 -16
85 -1 3 -28 -25 -59 -63z m52 -11 c0 -19 -5 -21 -33 -10 -16 7 -16 9 -1 31 13
18 18 20 25 10 5 -8 9 -22 9 -31z"/>
<path d="M4049 1213 c-14 -3 -14 -11 5 -76 11 -40 21 -73 22 -75 0 -1 9 1 18
4 10 4 13 10 8 13 -5 3 -12 18 -16 33 -5 24 -3 28 18 34 14 3 29 3 34 0 6 -3
8 2 5 13 -5 18 -6 18 -33 3 -32 -19 -35 -18 -44 20 -5 20 -2 28 11 31 12 3 13
5 3 5 -8 0 -22 -2 -31 -5z"/>
<path d="M3036 1175 c-9 -26 -7 -28 10 -11 18 18 30 20 39 6 9 -14 -15 -123
-29 -132 -7 -5 -5 -8 6 -8 9 0 25 -3 35 -6 13 -5 15 -4 7 5 -14 15 7 136 24
135 27 -2 31 -5 35 -21 4 -14 5 -13 6 4 1 22 -2 23 -90 39 -28 4 -38 2 -43
-11z"/>
<path d="M3847 1169 c-28 -17 -39 -57 -26 -96 19 -57 81 -72 124 -28 66 65
-18 171 -98 124z m77 -21 c19 -27 21 -89 4 -106 -16 -16 -53 -15 -67 2 -18 22
-25 81 -12 105 15 28 55 27 75 -1z"/>
<path d="M3212 1098 c-2 -34 -8 -68 -13 -74 -8 -9 3 -14 45 -19 55 -7 76 -3
76 17 0 7 -5 6 -14 -1 -8 -7 -27 -11 -43 -9 -24 3 -28 8 -28 33 0 28 2 30 38
29 22 -1 37 3 37 10 0 8 -13 10 -35 8 -34 -4 -35 -3 -35 28 0 30 2 32 28 28
15 -3 35 -9 45 -13 9 -4 17 -3 17 3 0 10 -47 22 -89 22 -25 0 -26 -3 -29 -62z"/>
<path d="M3413 1143 c-7 -2 -13 -17 -13 -33 0 -22 8 -33 36 -49 23 -14 34 -27
32 -38 -5 -25 -36 -28 -59 -7 -18 16 -19 16 -19 -2 0 -15 8 -20 31 -22 77 -6
95 37 34 84 -38 29 -45 51 -18 61 10 4 23 -2 35 -16 l18 -23 0 23 c0 20 -6 24
-33 26 -17 0 -38 -1 -44 -4z"/>
</g>
</svg>
